<?xml version="1.0" standalone="no"?>
<!DOCTYPE svg PUBLIC "-//W3C//DTD SVG 20010904//EN"
 "http://www.w3.org/TR/2001/REC-SVG-20010904/DTD/svg10.dtd">
<svg version="1.0" xmlns="http://www.w3.org/2000/svg"
 width="1108.000000pt" height="1108.000000pt" viewBox="0 0 1108.000000 1108.000000"
 preserveAspectRatio="xMidYMid meet">
<metadata>
Created by potrace 1.14, written by Peter Selinger 2001-2017
</metadata>
<g transform="translate(0.000000,1108.000000) scale(0.100000,-0.100000)"
fill="#000000" stroke="none">
<path d="M0 10865 l0 -215 26 0 c34 0 244 -47 266 -60 10 -6 48 -20 85 -31 38
-12 85 -27 106 -35 97 -37 115 -43 157 -55 51 -14 154 -60 282 -125 74 -37 91
-42 113 -34 15 6 43 10 63 10 20 0 55 7 77 15 22 8 54 14 71 15 17 0 37 7 44
15 7 8 25 15 40 15 15 0 37 9 49 19 21 18 33 22 128 36 23 4 47 13 54 21 6 8
20 14 29 14 10 0 31 6 47 14 15 8 42 19 58 26 17 7 43 18 58 26 16 8 35 14 43
14 8 0 33 14 56 30 22 17 45 30 50 30 5 0 28 16 51 35 23 19 83 55 132 81 50
26 101 55 115 64 14 9 37 20 51 23 14 4 36 16 49 27 13 11 35 20 49 20 14 0
46 9 70 20 24 11 54 20 67 20 12 0 25 4 28 9 8 13 149 33 211 30 17 -1 44 -1
60 0 17 1 118 2 225 2 154 1 204 -2 239 -15 49 -18 240 -23 257 -6 8 8 76 11
194 9 19 0 76 0 125 0 50 0 106 1 125 1 19 0 62 2 95 6 80 7 90 7 160 -7 60
-11 118 -15 335 -23 63 -2 154 -13 202 -24 52 -11 108 -17 137 -14 27 2 66 -1
87 -9 27 -9 84 -12 184 -10 80 1 152 2 160 2 138 -6 160 -10 220 -36 51 -23
78 -28 125 -27 68 3 121 17 128 35 8 22 136 191 169 225 l32 32 -2992 0 -2992
0 0 -215z"/>
<path d="M8504 10582 c3 -5 -1 -12 -9 -16 -19 -7 -20 -26 -1 -26 18 0 66 -46
58 -56 -4 -4 -1 -4 7 1 18 10 31 -12 31 -52 0 -25 6 -36 28 -47 29 -15 92 -82
92 -98 0 -5 5 -6 10 -3 6 3 15 -6 20 -20 10 -26 10 -26 35 -8 13 10 27 33 31
51 6 30 1 133 -8 176 -5 23 -34 39 -57 33 -10 -2 -23 4 -30 14 -6 11 -18 19
-25 19 -8 0 -22 8 -32 17 -19 20 -162 34 -150 15z"/>
<path d="M60 10295 c-14 -8 -33 -14 -42 -15 -17 0 -18 -43 -18 -769 0 -753 0
-770 19 -776 24 -7 61 14 61 35 0 20 72 49 78 31 2 -6 12 -11 22 -11 11 0 25
-10 32 -22 15 -28 15 -29 17 -78 1 -28 5 -40 16 -40 8 0 15 -3 16 -7 0 -5 2
-17 4 -28 2 -11 -1 -23 -8 -27 -9 -6 -7 -12 6 -22 10 -8 20 -20 21 -28 2 -7 7
-32 11 -54 6 -33 18 -51 57 -85 28 -24 55 -56 60 -71 6 -17 15 -25 24 -21 23
9 44 -16 39 -46 -3 -14 -2 -20 1 -13 10 20 24 14 24 -11 0 -28 34 -62 51 -51
8 5 10 3 4 -6 -6 -10 -1 -11 21 -6 16 4 39 8 51 9 18 2 21 7 16 25 -6 26 -4
27 42 5 31 -15 40 -15 73 -4 44 16 53 28 46 57 -5 19 0 23 35 29 23 4 41 9 41
12 0 3 -10 13 -22 23 -18 14 -20 21 -11 32 7 8 15 34 19 58 8 49 17 60 52 60
27 0 28 10 2 33 -21 18 -27 52 -10 62 18 11 11 56 -15 89 -38 50 -33 63 30 77
45 10 54 15 51 32 -1 11 -10 25 -19 32 -9 7 -17 15 -17 19 0 16 28 35 56 38
35 4 43 31 18 59 -18 20 -14 30 20 42 5 2 4 17 -2 37 -18 51 -15 60 18 60 36
0 38 9 6 39 -14 13 -22 29 -19 37 2 7 -2 23 -11 36 -20 29 -21 68 -1 68 8 0
15 7 15 15 0 8 -5 15 -12 15 -6 0 -21 8 -32 19 -22 19 -115 41 -176 41 -55 0
-100 18 -100 41 0 15 -6 19 -30 17 -16 -1 -30 -6 -30 -10 0 -4 -5 -8 -11 -8
-5 0 -9 10 -7 23 2 14 -2 22 -12 22 -8 0 -14 -5 -13 -12 3 -16 -17 -30 -57
-37 -25 -4 -29 -3 -15 3 19 8 18 10 -8 20 -16 6 -35 11 -43 11 -8 0 -14 10
-14 25 0 14 -5 25 -12 25 -6 0 -9 3 -6 6 4 3 2 19 -2 35 -7 22 -5 31 8 39 14
8 14 10 2 11 -32 3 -55 -3 -66 -17 -9 -11 -20 -12 -50 -5 -26 6 -31 9 -15 10
20 1 21 3 11 16 -10 12 -10 15 0 15 6 0 26 6 43 14 18 7 44 18 60 24 19 8 27
19 27 36 0 25 -2 25 -76 24 -79 -1 -97 7 -99 43 -2 28 47 58 86 54 31 -4 50
12 25 21 -18 7 -22 64 -5 64 5 0 8 4 4 10 -8 12 33 53 45 45 6 -4 10 4 11 17
0 13 3 17 6 10 7 -17 33 4 33 27 -1 22 -35 61 -54 61 -31 0 -42 35 -35 112 4
40 5 76 2 81 -2 4 -14 7 -27 7 -36 0 -88 21 -113 46 -14 14 -40 25 -72 29 -28
4 -53 11 -57 16 -8 14 -66 10 -94 -6z"/>
<path d="M8723 10208 c0 -15 -8 -34 -17 -43 -19 -20 -20 -34 -3 -41 7 -2 12
-17 11 -33 -1 -16 2 -35 7 -42 7 -11 9 -11 9 2 0 9 9 26 20 39 11 13 20 30 20
40 0 9 5 21 12 28 7 7 8 12 2 12 -6 0 -16 12 -22 26 -7 14 -16 23 -21 20 -5
-4 -11 0 -14 6 -2 7 -4 1 -4 -14z"/>
<path d="M7737 10164 c-11 -14 -16 -28 -13 -31 7 -7 56 36 56 49 0 17 -26 6
-43 -18z"/>
<path d="M8721 10003 c-1 -34 -9 -41 -28 -22 -15 15 -61 -43 -69 -89 -3 -20
-12 -47 -20 -59 -22 -35 -17 -43 26 -43 38 0 39 -1 35 -32 -2 -18 -9 -34 -15
-36 -5 -2 -10 -8 -10 -14 0 -5 -9 -17 -20 -26 -12 -10 -22 -28 -22 -42 -1 -14
-5 -27 -8 -30 -5 -5 -20 -28 -48 -73 -9 -16 -32 -48 -49 -70 -18 -23 -33 -52
-33 -64 0 -12 -4 -24 -9 -27 -4 -3 -11 -26 -13 -50 -4 -30 -15 -57 -34 -80
-32 -38 -53 -46 -50 -18 1 13 -6 17 -28 15 -38 -3 -41 -7 -30 -45 9 -29 14
-33 41 -31 26 1 32 -3 35 -20 2 -12 0 -32 -5 -44 -10 -23 -40 -40 -44 -26 -2
5 -20 7 -40 5 -43 -5 -95 -55 -115 -108 -6 -19 -21 -37 -31 -40 -16 -5 -18
-12 -13 -45 4 -24 0 -54 -10 -81 -33 -90 -28 -115 24 -103 28 7 29 -11 0 -18
-17 -5 -19 -9 -10 -20 7 -8 9 -17 5 -21 -4 -3 -14 -28 -22 -54 -9 -26 -22 -46
-28 -45 -7 2 -10 -4 -7 -11 3 -9 -9 -30 -28 -49 -18 -19 -48 -53 -67 -75 -19
-22 -42 -43 -50 -46 -48 -18 -121 -77 -121 -97 0 -18 -55 -79 -71 -79 -16 0
-99 -82 -93 -91 3 -5 0 -9 -5 -9 -6 0 -11 -11 -11 -25 0 -15 -6 -25 -14 -25
-8 0 -16 -5 -18 -11 -2 -6 -25 -13 -51 -16 -25 -3 -44 -9 -42 -14 3 -4 -15
-17 -40 -28 -53 -23 -61 -51 -15 -51 43 0 51 -27 16 -57 -32 -27 -28 -39 17
-48 45 -10 53 -19 55 -62 1 -21 4 -64 6 -95 2 -40 -1 -61 -10 -69 -8 -6 -14
-16 -14 -21 0 -23 -34 -41 -77 -40 -29 0 -46 -5 -50 -14 -3 -8 -10 -14 -17
-14 -7 0 -16 -15 -21 -32 -7 -22 -21 -38 -42 -48 -31 -15 -35 -23 -50 -108 -4
-27 0 -37 25 -60 17 -15 33 -37 37 -50 8 -28 36 -43 84 -44 76 -1 106 44 56
84 -38 30 -33 64 12 79 45 14 69 42 78 88 3 18 15 43 26 54 12 13 19 35 19 61
0 21 3 36 7 33 3 -4 12 -2 19 4 8 6 20 9 28 6 16 -6 36 11 36 30 0 7 -8 13
-17 14 -11 0 -13 3 -5 6 6 2 12 18 12 35 0 21 6 31 20 35 20 5 25 15 35 75 5
28 14 40 39 52 17 8 42 33 56 56 14 22 37 54 52 70 15 16 30 41 34 55 3 14 10
25 15 25 9 0 54 67 54 80 0 3 4 10 8 17 4 6 8 23 9 38 2 15 8 30 15 32 7 3 13
13 13 22 0 9 9 30 20 46 11 17 20 39 20 51 0 11 17 38 38 60 20 21 37 41 37
44 0 3 9 18 20 33 10 16 20 48 21 70 2 23 7 59 12 79 5 20 7 39 4 42 -2 3 7
10 22 15 14 6 26 15 26 19 0 5 22 18 49 30 43 18 48 23 44 45 -4 18 3 34 26
58 20 20 31 42 31 60 0 16 5 29 11 29 6 0 9 6 6 14 -12 30 45 142 76 150 11 2
16 9 13 14 -3 5 4 20 15 33 12 14 16 25 10 27 -13 4 -15 32 -3 32 5 0 14 11
20 25 6 14 20 25 29 25 17 1 16 2 -1 15 -19 14 -19 16 13 44 20 18 34 41 38
64 4 26 11 37 28 41 28 7 48 53 49 112 1 24 4 44 9 44 4 0 7 10 7 23 0 28 23
94 38 109 7 7 12 33 12 58 0 25 7 55 15 66 26 35 19 86 -18 122 -18 18 -35 30
-38 28 -3 -3 -3 10 -1 28 2 19 2 42 -1 52 -3 11 -5 6 -6 -13z"/>
<path d="M7336 9967 c-10 -15 -16 -31 -12 -34 11 -11 38 23 34 43 -3 17 -6 15
-22 -9z"/>
<path d="M7467 9873 c-13 -13 -7 -32 8 -27 8 4 15 12 15 20 0 15 -12 19 -23 7z"/>
<path d="M7212 9398 c-7 -7 -12 -18 -12 -25 0 -8 -7 -16 -15 -19 -8 -4 -15
-17 -15 -30 0 -22 -3 -24 -27 -17 -50 12 -91 8 -110 -12 -28 -31 -112 -97
-176 -139 -31 -21 -60 -42 -63 -48 -10 -16 3 -20 25 -8 12 6 21 8 21 5 0 -10
-23 -30 -57 -50 -54 -32 -41 -60 15 -31 28 14 142 32 142 22 0 -3 -27 -19 -61
-36 -33 -16 -73 -38 -87 -48 -15 -10 -41 -24 -59 -31 -17 -7 -39 -21 -49 -32
-16 -18 -16 -19 4 -19 12 0 52 11 89 25 59 22 69 24 81 11 13 -13 19 -13 43 0
19 9 30 11 35 3 3 -6 17 -8 33 -4 25 6 25 6 6 -8 -10 -8 -26 -12 -34 -9 -9 3
-12 1 -7 -6 4 -7 1 -15 -8 -18 -9 -3 -13 -11 -10 -16 4 -6 36 -7 85 -3 44 4
79 5 79 2 0 -2 -26 -15 -57 -27 -68 -27 -99 -50 -68 -51 19 0 19 -1 -2 -16
-13 -8 -23 -21 -23 -29 0 -7 -7 -17 -15 -22 -28 -15 -7 -42 34 -42 44 0 71
-14 47 -23 -14 -6 -14 -10 -4 -27 10 -16 20 -20 41 -16 15 3 27 2 27 -3 0 -7
-34 -23 -107 -52 -27 -10 -30 -29 -6 -29 12 0 14 -3 6 -11 -8 -8 -8 -20 -1
-40 5 -16 7 -36 4 -44 -11 -29 12 -65 45 -72 17 -3 26 -9 21 -12 -20 -13 -30
-46 -21 -63 6 -10 7 -23 4 -28 -8 -13 16 -24 47 -22 15 1 28 -2 28 -8 0 -5 -6
-10 -12 -10 -7 0 -26 -11 -42 -23 -33 -27 -31 -52 5 -65 19 -8 20 -10 6 -24
-24 -24 -11 -58 23 -58 41 0 89 20 100 41 8 15 7 17 -5 13 -29 -12 -15 25 20
52 56 42 79 87 72 142 -3 26 -1 68 4 95 5 26 13 68 18 95 5 28 5 51 0 57 -5 5
-9 19 -9 32 0 31 -37 45 -115 46 -60 0 -60 0 -25 12 20 7 34 18 32 26 -2 7 -1
28 3 46 4 24 11 33 25 33 11 0 20 4 20 10 0 5 23 32 50 60 28 28 50 54 50 59
0 14 62 81 75 81 18 0 52 41 59 72 4 19 11 26 21 22 8 -4 25 -4 38 0 25 6 32
32 31 124 l-1 52 45 0 c36 0 43 3 38 16 -3 9 -6 18 -6 20 0 2 -45 4 -100 4
-87 0 -102 2 -107 18 -10 25 -33 39 -75 46 -21 4 -38 10 -38 15 0 5 -3 16 -6
25 -4 12 0 16 15 16 25 0 27 12 6 30 -12 10 -15 10 -15 -1 0 -10 -3 -10 -12
-1 -7 7 -19 12 -28 12 -9 0 -21 -5 -28 -12z"/>
<path d="M7135 9340 c4 -6 11 -8 16 -5 14 9 11 15 -7 15 -8 0 -12 -5 -9 -10z"/>
<path d="M6795 8890 c-3 -5 1 -10 10 -10 9 0 13 5 10 10 -3 6 -8 10 -10 10 -2
0 -7 -4 -10 -10z"/>
<path d="M5472 8738 c-6 -6 -12 -19 -12 -27 0 -13 2 -13 16 1 9 9 15 21 13 27
-3 9 -8 8 -17 -1z"/>
<path d="M5560 8700 c-9 -6 -10 -10 -3 -10 6 0 15 5 18 10 8 12 4 12 -15 0z"/>
<path d="M5640 8669 c0 -5 5 -7 10 -4 6 3 10 8 10 11 0 2 -4 4 -10 4 -5 0 -10
-5 -10 -11z"/>
<path d="M5427 8639 c-14 -19 -32 -41 -40 -49 -7 -9 -18 -31 -24 -50 -7 -23
-11 -28 -12 -15 -2 18 -3 18 -17 -5 -15 -25 -15 -25 -9 10 l6 35 -17 -35 c-16
-32 -18 -33 -21 -12 -5 27 -23 19 -23 -11 0 -12 -7 -31 -15 -41 -10 -14 -15
-15 -15 -6 0 19 -17 1 -23 -25 -3 -11 -6 -3 -7 20 l-2 40 -12 -55 c-12 -56
-14 -56 -42 -2 l-14 27 -1 -35 c-1 -19 -3 -27 -6 -17 -5 20 -8 20 -34 7 -16
-9 -19 -7 -20 12 -1 21 -2 21 -6 3 -3 -11 -10 -31 -15 -45 -7 -20 -11 -22 -18
-10 -8 12 -10 11 -10 -5 -1 -11 -16 12 -35 50 -18 39 -34 61 -34 51 -1 -11 5
-27 13 -35 18 -21 32 -66 17 -57 -7 5 -9 -4 -5 -26 5 -31 5 -32 -10 -14 -9 11
-16 16 -16 10 0 -5 -9 5 -20 21 -15 23 -20 26 -20 12 0 -11 9 -30 20 -44 11
-14 20 -35 20 -47 0 -16 -9 -11 -45 29 -40 44 -55 37 -17 -7 17 -20 3 -25 -16
-6 -9 9 -12 9 -12 0 0 -12 11 -23 45 -47 11 -7 17 -17 13 -20 -4 -4 -14 -1
-22 6 -42 38 -44 39 -49 19 -3 -11 5 -26 21 -39 l25 -20 -27 -12 c-23 -11 -28
-10 -40 6 -7 11 -18 15 -25 10 -9 -5 -7 -11 8 -22 24 -16 27 -33 9 -51 -9 -9
-16 -8 -29 4 -13 12 -22 13 -36 6 -16 -9 -15 -11 8 -17 21 -5 25 -11 21 -31
-4 -21 -1 -24 23 -24 15 0 33 6 39 14 6 8 21 17 33 21 18 5 22 3 17 -9 -3 -9
-12 -16 -20 -16 -17 0 -17 -8 -4 -46 6 -16 19 -35 30 -42 19 -11 20 -10 15 11
-4 16 1 28 19 44 l24 21 -3 -49 c-2 -33 1 -49 10 -49 6 0 11 -10 10 -22 -2
-27 26 -61 33 -40 3 10 8 7 19 -7 8 -12 19 -19 24 -15 6 3 7 -4 3 -20 -4 -17
-2 -26 5 -26 11 0 34 -43 35 -65 1 -13 23 -36 69 -70 46 -34 42 -43 -7 -14
-21 12 -36 16 -36 10 0 -7 8 -15 18 -18 9 -4 24 -14 32 -22 13 -13 11 -14 -14
-7 -23 6 -11 -10 67 -85 61 -59 93 -97 90 -106 -4 -10 -9 -11 -16 -4 -6 6 -18
11 -26 11 -8 0 2 -14 22 -31 21 -17 37 -36 37 -41 0 -6 -7 -5 -15 2 -31 26
-13 -7 25 -45 21 -22 39 -45 40 -52 0 -6 18 -30 39 -54 l40 -42 58 6 c32 4 68
10 81 13 12 4 22 2 22 -4 0 -5 -10 -10 -22 -10 -13 -1 -32 -3 -43 -6 -11 -2
-26 -5 -32 -5 -30 -2 -9 -38 37 -67 49 -30 53 -31 220 -38 170 -7 196 -4 184
16 -4 6 -8 24 -9 39 -2 25 1 28 34 31 27 2 36 8 36 21 0 10 9 23 20 30 11 6
26 17 33 24 7 7 21 13 30 13 9 0 22 12 29 26 10 22 10 25 -3 20 -7 -3 -14 -1
-14 4 0 6 11 10 25 10 30 0 85 52 85 80 0 21 57 120 69 120 4 0 8 24 10 53 4
85 17 137 32 137 5 0 9 14 9 30 0 17 -4 30 -10 30 -5 0 -10 7 -10 16 0 8 5 12
10 9 6 -3 10 3 10 14 0 12 -4 21 -10 21 -5 0 -10 7 -10 15 0 8 5 15 10 15 6 0
10 -7 10 -15 0 -8 4 -15 10 -15 5 0 9 -8 8 -17 -2 -34 2 -53 13 -53 7 0 8 11
4 30 -3 16 -2 37 4 47 12 21 14 14 11 -44 -1 -41 0 -43 28 -43 28 0 30 2 34
46 2 25 0 48 -4 50 -3 2 -9 18 -13 34 -4 17 -11 30 -16 30 -5 0 -9 7 -9 15 0
8 -7 15 -15 15 -11 0 -15 11 -15 41 0 23 -4 38 -10 34 -5 -3 -7 -19 -4 -34 4
-16 1 -32 -5 -35 -7 -4 -11 1 -11 13 0 11 -4 23 -10 26 -5 3 -10 1 -10 -4 0
-18 -14 -13 -28 10 -11 17 -10 22 8 37 29 24 35 102 9 109 -11 3 -19 9 -19 13
0 4 -11 18 -24 31 -23 24 -35 89 -15 89 21 0 5 24 -66 96 -41 42 -75 83 -75
90 0 8 -6 14 -13 14 -7 0 -19 6 -25 13 -7 6 -16 12 -20 13 -4 0 -20 6 -35 12
-16 7 -36 12 -45 12 -10 0 -27 7 -39 15 -11 8 -52 16 -93 19 -39 2 -74 7 -77
10 -3 3 -18 -1 -34 -9 -35 -19 -45 -19 -30 -1 19 23 -44 17 -69 -6 -11 -10
-20 -14 -20 -9 0 6 -8 8 -17 6 -10 -3 -5 1 11 8 16 8 24 17 18 21 -6 3 -13 2
-17 -3 -3 -6 -12 -8 -19 -5 -8 3 -32 -4 -54 -15 -22 -11 -43 -17 -47 -13 -5 4
-6 0 -3 -8 4 -11 0 -16 -13 -16 -24 0 -24 3 6 42 14 18 21 35 17 38 -5 3 -14
-6 -21 -21 -6 -14 -15 -23 -18 -19 -4 4 -15 -8 -24 -26 l-17 -33 -7 28 c-6 21
-2 32 16 48 l24 21 -27 -16 c-38 -22 -47 -1 -13 28 15 13 26 29 23 36 -2 8
-15 -1 -31 -21z m-17 -59 c0 -5 -5 -10 -11 -10 -5 0 -7 5 -4 10 3 6 8 10 11
10 2 0 4 -4 4 -10z m-23 -42 c-3 -8 -6 -5 -6 6 -1 11 2 17 5 13 3 -3 4 -12 1
-19z m-57 -413 c0 -5 -5 -3 -10 5 -5 8 -10 11 -10 6 0 -5 7 -17 16 -27 19 -21
11 -54 -11 -45 -11 4 -15 -2 -15 -27 0 -24 -3 -28 -10 -17 -14 22 -12 66 5
108 13 29 18 34 25 22 5 -8 10 -19 10 -25z m193 -26 c5 -9 7 -28 3 -42 -9 -38
-61 -39 -78 -2 -21 47 47 88 75 44z m-493 -58 c0 -6 -4 -13 -10 -16 -5 -3 -10
1 -10 9 0 9 5 16 10 16 6 0 10 -4 10 -9z m20 -46 c0 -8 -2 -15 -4 -15 -2 0 -6
7 -10 15 -3 8 -1 15 4 15 6 0 10 -7 10 -15z m220 -5 c0 -11 -4 -20 -10 -20 -5
0 -10 9 -10 20 0 11 5 20 10 20 6 0 10 -9 10 -20z m1120 -75 c0 -14 -4 -25
-10 -25 -11 0 -14 33 -3 43 11 11 13 8 13 -18z m-655 -66 c11 -33 -10 -44 -28
-15 -12 18 -13 26 -4 29 21 9 26 7 32 -14z m-475 -189 c0 -5 -2 -10 -4 -10 -3
0 -8 5 -11 10 -3 6 -1 10 4 10 6 0 11 -4 11 -10z m110 -130 c0 -5 -5 -10 -11
-10 -5 0 -7 5 -4 10 3 6 8 10 11 10 2 0 4 -4 4 -10z m79 -120 c11 -24 11 -24
-3 -6 -9 11 -16 24 -16 30 0 12 5 7 19 -24z m81 -79 l0 -25 -19 21 c-13 14
-18 29 -14 43 6 22 7 22 20 5 7 -11 13 -30 13 -44z m44 23 c3 -8 2 -12 -4 -9
-6 3 -10 10 -10 16 0 14 7 11 14 -7z m-56 -52 c18 -16 32 -35 32 -42 0 -10 -6
-8 -20 6 -10 10 -26 25 -35 32 -13 11 -21 32 -12 32 2 0 18 -13 35 -28z m68 2
c19 -13 22 -20 13 -30 -6 -8 -8 -14 -4 -14 5 0 6 -3 2 -6 -3 -3 -17 5 -31 19
-43 43 -30 63 20 31z m254 -102 c0 -8 -1 -13 -3 -11 -1 2 -9 12 -16 22 -12 15
-12 17 3 11 9 -3 16 -13 16 -22z"/>
<path d="M5595 8660 c-3 -6 1 -7 9 -4 18 7 21 14 7 14 -6 0 -13 -4 -16 -10z"/>
<path d="M5351 8564 c0 -11 3 -14 6 -6 3 7 2 16 -1 19 -3 4 -6 -2 -5 -13z"/>
<path d="M5121 8554 c0 -11 3 -14 6 -6 3 7 2 16 -1 19 -3 4 -6 -2 -5 -13z"/>
<path d="M6843 8513 c-29 -10 -10 -24 29 -21 50 4 64 26 16 26 -18 0 -39 -3
-45 -5z"/>
<path d="M4990 8488 c0 -15 5 -30 10 -33 13 -8 13 25 0 45 -8 12 -10 9 -10
-12z"/>
<path d="M1730 8465 c0 -8 91 -58 96 -52 8 8 -57 57 -77 57 -10 0 -19 -2 -19
-5z"/>
<path d="M4846 8457 c3 -10 9 -15 12 -12 3 3 0 11 -7 18 -10 9 -11 8 -5 -6z"/>
<path d="M1910 8401 c0 -5 5 -13 10 -16 6 -3 10 -2 10 4 0 5 -4 13 -10 16 -5
3 -10 2 -10 -4z"/>
<path d="M1726 8379 c5 -8 -1 -10 -19 -7 -16 3 -24 1 -20 -5 4 -6 -10 -7 -39
-3 -31 5 -53 2 -73 -8 -19 -10 -43 -13 -65 -10 -26 4 -40 1 -49 -10 -7 -9 -19
-16 -26 -16 -19 0 -70 -28 -90 -50 -13 -14 -14 -20 -5 -20 10 0 9 -5 -3 -18
-10 -10 -17 -23 -17 -27 0 -5 -15 -25 -34 -45 -40 -42 -58 -95 -28 -86 17 6
18 0 18 -72 0 -69 4 -86 38 -155 20 -42 43 -77 50 -77 8 0 16 -16 20 -37 3
-21 9 -53 12 -71 5 -24 3 -32 -7 -30 -8 2 -16 -14 -22 -45 -17 -89 31 -224
110 -307 18 -19 35 -42 38 -50 3 -8 31 -33 61 -55 31 -22 63 -48 73 -58 10
-10 25 -15 33 -12 9 4 22 -1 31 -9 21 -22 36 -20 65 7 l25 22 -5 -27 c-6 -35
14 -55 32 -33 14 17 30 20 30 4 0 -5 -4 -7 -10 -4 -5 3 -10 -2 -10 -12 0 -9
-12 -27 -27 -40 -19 -15 -23 -22 -13 -23 26 0 61 31 76 67 8 18 19 31 24 28
16 -10 11 -29 -10 -43 -12 -7 -18 -17 -15 -22 9 -14 45 7 45 25 0 8 5 15 10
15 6 0 10 4 10 10 0 5 8 19 17 30 14 16 25 19 50 14 21 -4 33 -2 33 5 0 6 9
11 20 11 13 0 20 7 20 18 0 10 5 23 10 28 6 6 13 24 16 40 3 16 9 31 15 32 19
7 31 43 18 58 -8 10 -8 14 0 14 6 0 11 7 11 15 0 7 7 18 16 23 12 7 17 27 19
73 4 84 5 88 44 129 18 19 38 46 46 60 7 14 25 35 39 47 32 28 42 67 26 98 -7
13 -9 29 -4 36 5 9 9 8 15 -7 6 -14 8 -9 8 19 1 20 6 37 12 37 5 0 7 5 4 10
-3 6 -3 15 1 21 4 8 9 7 15 -2 7 -11 9 -10 9 3 0 9 -4 20 -10 23 -22 13 -8 31
25 33 26 2 35 -1 35 -13 0 -24 20 -17 21 8 1 12 1 25 0 30 0 4 3 7 9 7 5 0 10
-10 10 -22 0 -23 0 -23 20 2 14 18 18 34 14 56 -5 28 -3 32 20 38 25 6 70 -14
87 -37 4 -5 9 -4 13 1 3 6 1 14 -5 17 -5 4 -8 13 -5 21 3 8 -3 23 -14 34 -19
19 -20 19 -57 -2 -56 -33 -63 -43 -58 -80 3 -23 3 -26 -3 -10 -4 13 -10 23
-14 23 -22 -2 -28 0 -28 9 0 6 6 10 14 10 9 0 16 12 18 28 2 21 8 27 28 27 20
0 26 6 28 28 3 25 1 28 -17 22 -14 -4 -21 -2 -21 6 0 8 -7 5 -20 -6 -23 -21
-27 -8 -5 21 8 10 14 26 14 34 0 10 -2 11 -6 3 -2 -7 -18 -27 -34 -44 -26 -28
-29 -29 -29 -11 0 12 5 24 10 27 6 3 10 11 10 16 0 6 -4 8 -9 4 -6 -3 -14 2
-19 11 -8 14 -11 11 -20 -15 -11 -32 -28 -45 -18 -13 8 23 -53 50 -66 29 -5
-8 -12 -1 -20 21 -15 38 -28 42 -28 6 0 -14 -4 -23 -10 -19 -5 3 -10 17 -10
31 0 13 -4 24 -10 24 -5 0 -10 -8 -10 -17 0 -11 -8 -6 -26 18 -21 28 -25 30
-19 10 6 -20 4 -23 -10 -18 -9 4 -23 7 -31 7 -7 0 -20 16 -28 35 -17 40 -24
43 -34 16 -7 -18 -8 -18 -48 3 -23 11 -52 27 -64 34 -12 8 -20 9 -16 4 3 -6 2
-13 -3 -17 -10 -6 -39 7 -76 35 -16 12 -18 12 -7 0 16 -19 15 -27 -5 -34 -10
-4 -14 -4 -11 0 9 9 -30 39 -62 48 -20 6 -19 4 9 -14 48 -31 32 -35 -20 -5
-48 27 -64 31 -53 14z m383 -104 c0 -5 -4 -3 -9 5 -5 8 -9 22 -9 30 0 16 17
-16 18 -35z m-182 -156 c19 -12 32 -24 29 -27 -3 -3 -14 2 -24 11 -10 10 -24
17 -30 17 -6 0 -14 5 -17 10 -10 16 5 12 42 -11z m211 -142 c41 -30 55 -50 30
-44 -7 1 -15 -12 -18 -31 -3 -18 -8 -33 -12 -32 -5 0 -12 0 -18 0 -18 0 -61
98 -54 125 7 27 7 27 72 -18z m-363 -27 c21 -23 13 -70 -12 -70 -39 0 -67 52
-41 78 17 17 32 15 53 -8z m455 -260 c0 -5 -4 -10 -10 -10 -5 0 -10 5 -10 10
0 6 5 10 10 10 6 0 10 -4 10 -10z m-80 -70 c0 -5 -4 -10 -10 -10 -5 0 -10 5
-10 10 0 6 5 10 10 10 6 0 10 -4 10 -10z m-732 -25 c-3 -3 -9 2 -12 12 -6 14
-5 15 5 6 7 -7 10 -15 7 -18z m662 -402 c-1 -21 -13 -52 -20 -48 -10 6 0 55
11 55 5 0 9 -3 9 -7z"/>
<path d="M4817 8294 c-3 -3 1 -13 9 -21 8 -9 18 -12 21 -9 4 4 0 13 -8 21 -8
9 -18 13 -22 9z"/>
<path d="M2450 8251 c0 -25 6 -27 13 -6 4 8 2 17 -3 20 -6 4 -10 -3 -10 -14z"/>
<path d="M4750 8210 c0 -5 5 -10 11 -10 5 0 7 5 4 10 -3 6 -8 10 -11 10 -2 0
-4 -4 -4 -10z"/>
<path d="M2570 8165 c-20 -24 -6 -28 15 -5 10 11 13 20 8 20 -6 0 -16 -7 -23
-15z"/>
<path d="M3484 8160 c-71 -8 -216 -51 -241 -71 -7 -7 -31 -21 -52 -33 -86 -46
-170 -146 -212 -251 -13 -33 -35 -74 -50 -92 -27 -31 -45 -95 -40 -145 1 -14
-3 -29 -9 -33 -15 -9 -34 -56 -31 -78 1 -10 -3 -25 -10 -33 -9 -11 -9 -21 0
-40 13 -30 15 -64 2 -64 -19 0 -24 -42 -7 -52 22 -12 20 -24 -9 -62 l-25 -33
25 -13 c16 -9 25 -22 25 -37 0 -14 -4 -21 -10 -18 -5 3 -10 2 -10 -3 0 -6 7
-12 15 -16 28 -10 57 -116 32 -116 -5 0 -6 11 -3 25 5 18 2 25 -9 25 -8 0 -15
-5 -15 -11 0 -21 -44 -51 -67 -46 -17 3 -27 -4 -41 -27 l-19 -32 29 1 c16 0
32 5 36 10 4 6 26 11 50 12 l43 2 -23 -19 c-15 -13 -18 -19 -9 -20 10 0 6 -10
-13 -29 l-27 -28 28 -21 c15 -12 22 -22 16 -22 -7 0 -13 -7 -13 -15 0 -8 -8
-15 -17 -15 -26 -1 -56 -27 -50 -44 4 -9 -5 -18 -24 -26 -16 -7 -29 -16 -29
-21 0 -15 15 -10 40 11 13 11 27 20 32 20 15 0 8 -28 -9 -42 -16 -12 -43 -51
-43 -62 0 -2 17 0 38 5 53 12 57 11 39 -9 -23 -25 -21 -35 4 -29 11 3 19 2 17
-1 -37 -69 -44 -126 -18 -142 9 -6 -24 -85 -40 -95 -7 -4 -6 -13 1 -27 8 -16
8 -19 -1 -13 -9 5 -10 1 -6 -16 l7 -24 -14 23 c-13 22 -13 21 -14 -15 -1 -21
-4 -58 -6 -83 -3 -25 -3 -33 0 -17 2 15 8 27 12 27 5 0 6 -11 4 -24 -4 -19 -1
-24 12 -22 9 1 21 9 26 17 7 12 9 12 9 -2 0 -17 -29 -60 -30 -44 0 6 -8 -3
-19 -18 -15 -23 -20 -25 -24 -13 -4 9 -4 24 -1 34 3 9 -5 4 -20 -13 -14 -16
-26 -38 -26 -48 0 -9 -5 -16 -11 -15 -6 2 -14 -4 -16 -12 -4 -13 -3 -13 7 0 9
12 10 5 6 -30 l-5 -45 12 37 c18 55 33 65 29 19 -4 -43 17 -61 40 -34 11 14
14 13 18 -13 4 -16 1 -37 -4 -46 -15 -25 1 -35 19 -12 8 10 15 15 15 9 1 -5 5
-29 9 -52 8 -41 4 -48 -21 -44 -5 0 -8 -8 -8 -19 0 -22 25 -28 33 -7 4 9 8 8
16 -3 5 -8 13 -11 17 -7 4 3 1 14 -6 22 -10 12 -10 19 -2 27 9 9 15 3 26 -23
9 -19 15 -29 16 -24 0 6 9 -1 20 -15 18 -24 19 -24 26 -5 11 32 44 105 47 105
2 0 1 -17 0 -37 -4 -33 -2 -36 8 -18 7 11 18 24 26 28 7 4 13 15 13 24 0 12 3
13 14 4 12 -10 18 -7 31 18 15 31 39 44 29 17 -7 -19 24 -15 37 5 7 11 9 8 10
-11 l1 -25 7 25 c4 14 13 25 21 25 8 0 18 7 23 15 4 8 6 -3 3 -25 -2 -25 2
-45 10 -53 15 -14 28 -16 20 -3 -3 5 1 14 9 21 8 7 15 9 15 6 0 -4 7 -1 15 8
8 8 15 19 15 25 0 5 4 12 9 15 5 3 7 -22 4 -59 -5 -71 1 -83 17 -32 10 31 10
31 5 -8 -3 -22 -8 -53 -12 -70 -3 -16 -2 -27 1 -24 14 13 45 111 41 129 -2 11
0 22 6 25 5 4 9 2 9 -4 0 -17 25 -2 35 21 6 11 15 21 20 21 6 0 16 7 22 16 11
13 12 8 6 -29 -7 -45 -7 -94 0 -160 6 -54 7 -56 17 -40 5 8 15 15 22 15 9 0
14 20 16 66 3 61 5 67 27 71 18 4 25 0 29 -19 4 -12 13 -23 21 -23 11 0 15
-12 15 -45 0 -70 -27 -56 -51 25 -14 45 -14 45 -20 15 -10 -47 -10 -97 0 -90
5 3 12 1 16 -5 3 -5 15 -10 26 -10 12 0 19 -7 19 -19 0 -11 5 -23 10 -26 6 -3
10 -17 10 -31 0 -15 4 -23 11 -19 6 4 8 13 5 21 -3 8 0 23 6 33 9 15 8 33 -2
78 -17 74 -19 93 -8 99 4 3 8 26 8 51 0 26 3 43 7 39 4 -4 7 -56 8 -116 0 -94
3 -112 19 -127 10 -10 16 -12 12 -5 -4 6 -3 12 3 12 13 0 26 90 15 99 -13 9
-17 78 -5 86 6 3 11 17 11 31 0 30 16 32 23 2 13 -53 18 -130 8 -123 -6 3 -11
13 -11 21 0 8 -3 14 -7 14 -7 0 -8 -126 -3 -195 l1 -20 9 20 c8 19 9 18 9 -4
1 -23 2 -24 14 -6 8 10 19 15 25 11 8 -5 10 -1 5 10 -5 12 -3 15 6 9 7 -4 11
-18 8 -31 -3 -20 -1 -22 14 -13 15 7 17 6 13 -6 -7 -18 22 -21 29 -2 3 6 3 -3
0 -20 -3 -21 -1 -33 6 -33 9 0 14 18 14 55 0 6 11 10 24 10 18 0 23 -5 23 -27
0 -19 5 -28 16 -28 15 0 16 10 11 73 -3 40 -1 80 3 88 12 20 -14 169 -36 212
l-17 32 21 -18 c20 -18 20 -18 24 0 2 11 9 1 18 -27 8 -25 20 -49 27 -55 12
-9 14 -42 10 -137 -1 -21 -6 -38 -10 -38 -5 0 -7 -11 -5 -25 4 -34 22 -32 25
3 1 15 6 50 10 77 l9 50 6 -59 c4 -32 12 -64 18 -70 9 -8 10 -1 4 29 -3 22 -3
37 1 33 5 -4 14 -3 22 3 10 9 13 8 13 -5 0 -23 15 -20 28 7 l11 22 0 -22 c1
-13 5 -23 10 -23 6 0 7 16 4 35 -3 20 -1 35 4 35 6 0 8 -12 6 -27 -4 -22 -2
-25 6 -13 8 12 11 5 12 -30 1 -25 1 -53 0 -62 -2 -12 3 -16 12 -12 23 8 12 99
-19 161 -15 29 -31 53 -36 53 -5 0 -7 4 -4 8 3 5 -6 32 -19 60 -31 67 -23 67
12 0 26 -50 28 -52 31 -25 2 16 0 36 -4 45 -4 10 -9 28 -10 42 -3 25 -3 25 22
-5 29 -34 44 -68 43 -93 0 -9 -7 -1 -15 18 -8 19 -12 24 -8 10 3 -14 8 -47 11
-73 4 -33 10 -47 18 -43 7 2 16 -5 19 -17 9 -33 7 -49 -4 -42 -13 8 -13 -36 0
-69 15 -40 30 -32 18 10 -6 24 -6 40 0 46 7 7 12 -4 16 -29 4 -21 12 -45 17
-53 8 -12 10 -9 5 10 l-5 25 24 -27 c20 -24 24 -25 28 -10 4 16 5 16 6 0 0
-10 6 -18 11 -18 14 0 12 37 -2 43 -10 4 -10 7 0 18 9 9 12 10 12 1 0 -7 6
-12 13 -12 8 0 19 -10 25 -22 10 -22 11 -22 12 -3 1 20 1 20 15 1 15 -19 15
-19 15 1 0 12 -4 25 -10 28 -20 13 -10 26 12 14 17 -9 24 -9 32 3 12 15 66 23
66 9 0 -5 12 -12 26 -15 19 -5 30 -2 39 10 10 14 22 16 68 11 30 -3 58 -3 62
1 3 4 22 5 41 3 18 -1 34 2 34 7 0 6 33 13 73 16 106 8 127 12 138 23 8 8 22
-1 47 -28 40 -42 56 -48 66 -23 5 14 8 14 24 -3 21 -23 102 -52 160 -56 36 -3
42 -1 42 16 0 57 -90 284 -120 302 -18 11 -50 -6 -50 -26 0 -10 -5 -19 -11
-19 -7 0 -9 -10 -4 -27 6 -26 6 -27 -13 -10 -23 21 -32 21 -47 0 -8 -11 -27
-18 -46 -18 -25 0 -36 -6 -46 -25 -11 -22 -13 -23 -13 -4 0 24 -18 44 -40 44
-9 0 -22 6 -29 13 -6 6 -17 12 -24 12 -7 0 -13 10 -13 23 -1 18 1 20 13 10 12
-10 13 -7 7 18 -4 16 -8 37 -8 46 0 9 -4 14 -8 12 -4 -3 -8 1 -8 8 -1 7 -14
31 -30 53 -16 22 -36 55 -44 73 -8 18 -39 57 -68 88 -29 31 -53 63 -53 72 0
10 -5 16 -11 15 -7 -1 -14 11 -18 27 -4 21 -15 33 -38 43 -18 8 -44 26 -57 40
-13 15 -28 24 -32 21 -5 -3 -9 0 -9 5 0 19 26 12 50 -14 13 -14 25 -23 27 -21
6 6 -20 56 -29 56 -5 0 -6 5 -2 11 4 6 17 -5 33 -28 62 -92 135 -182 140 -174
4 5 20 -4 38 -19 19 -17 27 -30 20 -33 -15 -6 2 -38 24 -46 12 -4 12 -2 0 13
-25 30 -5 27 29 -5 25 -24 29 -33 19 -40 -8 -5 -23 -6 -34 -2 -18 5 -18 5 -2
-11 10 -10 22 -14 29 -10 10 6 10 4 0 -8 -11 -14 -8 -25 24 -72 20 -31 40 -53
45 -50 5 3 9 -2 9 -10 0 -16 12 -21 23 -10 6 6 -9 43 -22 54 -13 11 -31 50
-23 50 5 0 14 -10 21 -23 13 -25 71 -65 71 -49 0 5 -3 12 -7 16 -11 11 -13 40
-3 46 5 3 -6 23 -25 45 -18 22 -37 36 -41 32 -5 -4 -2 -13 6 -18 12 -8 11 -10
-4 -7 -12 2 -23 15 -27 32 -5 17 -21 41 -36 54 -15 13 -28 29 -28 35 0 7 -7
12 -15 12 -8 0 -34 14 -57 33 -31 24 -41 28 -37 15 8 -24 -42 33 -62 72 -9 17
-32 49 -50 71 -18 23 -30 44 -27 48 3 3 13 -3 20 -14 8 -11 18 -18 23 -15 4 3
13 -2 21 -11 7 -8 22 -20 33 -26 20 -10 20 -9 -2 14 -12 13 -20 27 -17 30 3 3
-33 40 -80 83 -47 42 -85 82 -85 89 0 22 -88 161 -132 209 -39 42 -69 63 -53
37 3 -6 -1 -7 -10 -3 -12 4 -13 8 -5 13 8 5 9 13 4 21 -12 20 78 -61 96 -86 8
-12 21 -28 28 -36 7 -8 24 -34 37 -59 16 -32 29 -44 42 -42 12 2 14 0 6 -5
-22 -15 0 -65 40 -90 40 -25 51 -14 16 15 -37 30 -49 43 -49 53 0 11 59 -33
127 -93 24 -21 48 -38 54 -38 6 0 25 -11 41 -25 17 -14 33 -24 35 -21 10 9 -9
25 -65 57 -74 42 -93 59 -88 78 3 10 -8 25 -28 41 -19 14 -32 27 -30 29 2 2
-1 12 -7 22 -11 22 -6 24 24 7 21 -11 21 -10 7 7 -13 17 -13 18 0 10 44 -26
70 -51 65 -63 -2 -7 -1 -10 4 -7 5 3 33 -8 61 -25 28 -16 56 -30 61 -30 17 0
-13 26 -72 61 -67 42 -109 78 -109 96 0 16 -47 18 -52 2 -2 -7 -18 0 -36 16
-40 33 -30 56 15 36 19 -9 29 -9 31 -2 2 6 9 8 15 4 7 -4 8 0 3 12 -6 18 -6
18 12 2 21 -19 47 -23 36 -6 -3 6 -25 23 -48 37 -23 15 -44 32 -47 37 -2 6 -8
9 -12 7 -5 -1 -6 2 -2 8 9 15 19 12 43 -10 13 -13 23 -16 27 -9 7 11 -1 24
-14 24 -13 0 -70 53 -64 59 4 3 -3 6 -15 6 -11 0 -23 4 -26 9 -3 5 -26 18 -51
30 -49 23 -51 27 -31 54 13 17 16 16 41 -17 31 -41 72 -70 80 -56 5 8 -38 53
-91 96 -18 14 -17 14 4 4 34 -17 96 -60 104 -73 10 -16 20 -3 12 17 -3 9 -12
16 -19 16 -8 0 -28 17 -47 39 -18 21 -52 50 -75 64 -23 14 -44 31 -48 37 -7
11 55 -15 89 -37 14 -9 23 -9 37 0 16 10 23 7 46 -17 25 -25 26 -27 6 -22 -17
5 -21 3 -19 -11 2 -11 10 -17 22 -15 11 2 28 4 38 5 39 4 25 50 -18 58 -11 2
-20 12 -22 22 -3 21 30 23 66 2 29 -17 40 -18 40 -7 0 5 -11 15 -25 22 -13 7
-22 17 -19 21 2 4 -1 11 -7 15 -8 5 -9 3 -4 -6 6 -10 2 -12 -16 -7 -13 4 -27
7 -31 7 -4 0 0 9 9 20 9 11 20 16 23 11 3 -5 21 -6 40 -2 30 7 32 9 16 16 -19
8 -19 9 0 16 18 7 18 8 -2 8 -12 1 -27 -5 -34 -13 -12 -16 -40 -11 -40 6 0 6
7 7 16 4 8 -3 12 -2 9 4 -3 6 3 10 15 10 12 0 19 4 16 9 -4 5 13 13 36 17 l43
7 -32 10 c-37 11 -41 21 -15 36 11 7 13 10 3 11 -10 0 -11 3 -2 14 9 11 9 15
-1 19 -10 3 -8 10 6 26 19 21 19 21 -7 21 -27 0 -36 13 -17 25 16 10 12 22
-10 28 -13 3 -18 10 -14 21 4 9 0 18 -9 22 -9 3 -18 23 -22 43 -5 30 -23 54
-87 117 -44 43 -114 113 -157 156 -67 67 -223 178 -251 178 -6 0 -18 4 -28 9
-91 46 -134 54 -306 57 -94 1 -203 -2 -242 -6z m-59 -139 c3 -5 1 -12 -5 -16
-5 -3 -10 1 -10 9 0 18 6 21 15 7z m-35 -44 c28 5 32 4 27 -10 -7 -18 8 -33
44 -42 21 -5 26 -11 22 -28 -5 -20 -4 -21 8 -5 20 25 36 10 57 -55 16 -48 17
-59 6 -68 -8 -6 -14 -18 -14 -26 0 -18 -20 -12 -34 10 -8 13 -8 20 2 25 9 6 3
19 -23 48 -19 21 -35 44 -35 49 0 15 -37 45 -55 45 -7 0 -17 5 -20 10 -3 6
-14 10 -23 10 -17 0 -45 44 -34 55 3 3 13 -2 22 -10 12 -11 27 -13 50 -8z
m160 13 c0 -5 -4 -10 -9 -10 -6 0 -13 5 -16 10 -3 6 1 10 9 10 9 0 16 -4 16
-10z m-248 -38 c-6 -2 -12 -12 -12 -23 0 -18 -1 -18 -21 2 -24 24 -12 40 24
31 12 -3 16 -7 9 -10z m426 -22 c7 -11 10 -20 6 -20 -13 0 -44 21 -44 30 0 17
25 11 38 -10z m-568 -10 c0 -5 -4 -10 -10 -10 -5 0 -10 5 -10 10 0 6 5 10 10
10 6 0 10 -4 10 -10z m533 -26 c-6 -17 -23 -9 -23 11 0 8 6 12 14 9 8 -3 12
-12 9 -20z m-528 -19 c0 -10 -8 -19 -17 -21 -10 -1 -18 2 -18 7 0 6 -4 8 -9 4
-5 -3 -13 0 -17 6 -5 9 1 10 19 5 22 -5 25 -3 20 10 -4 12 -2 15 8 12 8 -3 14
-13 14 -23z m576 -14 c-5 -9 -7 -21 -5 -26 7 -18 -33 -12 -45 7 -9 14 -8 16 4
12 10 -4 15 0 15 13 0 27 10 35 26 22 9 -7 11 -17 5 -28z m-628 -19 c3 7 6 4
6 -7 0 -11 -3 -27 -9 -35 -9 -15 -8 -17 -25 36 -4 14 -3 15 9 5 11 -9 15 -9
19 1z m580 -26 c21 -32 9 -42 -14 -12 -21 27 -24 36 -10 36 5 0 16 -11 24 -24z
m517 -26 c0 -5 -4 -10 -10 -10 -5 0 -10 5 -10 10 0 6 5 10 10 10 6 0 10 -4 10
-10z m-526 -29 c9 -10 14 -25 10 -35 -7 -19 -26 -22 -23 -3 3 28 -2 48 -11 42
-5 -3 -10 -1 -10 4 0 17 15 13 34 -8z m-556 -20 c3 -8 -1 -12 -9 -9 -7 2 -15
10 -17 17 -3 8 1 12 9 9 7 -2 15 -10 17 -17z m443 -38 c-12 -20 -14 -14 -5 12
4 9 9 14 11 11 3 -2 0 -13 -6 -23z m-452 -5 c-7 -12 -12 -38 -11 -56 1 -29 -1
-32 -13 -22 -8 7 -15 22 -15 33 0 16 -3 18 -12 9 -18 -18 -28 -15 -28 8 0 12
-7 20 -17 20 -14 0 -14 3 -5 12 9 9 15 10 20 2 14 -22 41 -24 52 -4 6 11 17
20 26 20 12 0 13 -4 3 -22z m1071 1 c0 -6 -4 -7 -10 -4 -5 3 -10 11 -10 16 0
6 5 7 10 4 6 -3 10 -11 10 -16z m-40 -30 c0 -11 -4 -17 -10 -14 -5 3 -10 13
-10 21 0 8 5 14 10 14 6 0 10 -9 10 -21z m-1006 -11 c3 -13 6 -30 6 -38 -1
-13 -2 -13 -9 0 -16 27 -22 60 -13 60 5 0 12 -10 16 -22z m401 -18 c-11 -17
-23 -1 -18 21 5 19 7 19 15 5 5 -9 6 -21 3 -26z m575 20 c0 -5 -2 -10 -4 -10
-3 0 -8 5 -11 10 -3 6 -1 10 4 10 6 0 11 -4 11 -10z m-571 -96 c6 -15 10 -29
7 -31 -5 -6 -56 38 -56 49 0 20 38 6 49 -18z m-34 -64 c3 -5 2 -10 -4 -10 -5
0 -13 5 -16 10 -3 6 -2 10 4 10 5 0 13 -4 16 -10z m960 -148 c-6 -6 -34 11
-39 24 -4 11 0 10 18 -3 13 -10 23 -19 21 -21z m42 -9 c-18 -4 -17 -6 4 -29
30 -32 8 -31 -39 2 -25 17 -30 24 -14 19 13 -4 22 -2 22 4 0 6 10 10 23 10 18
-1 19 -2 4 -6z m-76 -50 c13 -16 12 -17 -3 -4 -10 7 -18 15 -18 17 0 8 8 3 21
-13z m-1176 -4 c10 -14 1 -21 -19 -13 -9 3 -13 10 -10 15 7 12 21 11 29 -2z
m1235 -49 c8 -5 11 -10 5 -10 -5 0 -17 5 -25 10 -8 5 -10 10 -5 10 6 0 17 -5
25 -10z m-540 -40 c0 -5 -5 -10 -11 -10 -5 0 -7 5 -4 10 3 6 8 10 11 10 2 0 4
-4 4 -10z m381 -66 c21 -24 22 -26 3 -16 -25 13 -50 42 -37 42 5 0 20 -12 34
-26z m-51 -24 c8 -5 11 -10 5 -10 -5 0 -17 5 -25 10 -8 5 -10 10 -5 10 6 0 17
-5 25 -10z m-24 -51 c19 -22 19 -22 -3 -8 -13 8 -23 17 -23 21 0 12 6 9 26
-13z m146 -51 c20 -18 44 -39 54 -46 11 -7 6 -6 -11 2 -27 13 -96 76 -83 76 3
0 21 -15 40 -32z m-62 -60 c0 -6 -6 -5 -15 2 -8 7 -15 14 -15 16 0 2 7 1 15
-2 8 -4 15 -11 15 -16z m-1440 -3 c0 -8 -4 -15 -10 -15 -5 0 -10 7 -10 15 0 8
5 15 10 15 6 0 10 -7 10 -15z m1594 -44 c-6 -6 -67 34 -72 47 -2 7 14 1 36
-15 22 -15 38 -30 36 -32z m-44 -11 c0 -5 -2 -10 -4 -10 -3 0 -8 5 -11 10 -3
6 -1 10 4 10 6 0 11 -4 11 -10z m-25 -10 c3 -5 2 -10 -4 -10 -5 0 -13 5 -16
10 -3 6 -2 10 4 10 5 0 13 -4 16 -10z m-1545 -10 c0 -5 -5 -10 -11 -10 -5 0
-7 5 -4 10 3 6 8 10 11 10 2 0 4 -4 4 -10z m1475 -42 l20 -23 -21 18 c-11 9
-25 17 -31 17 -6 0 -13 7 -17 15 -8 21 23 5 49 -27z m115 28 c0 -11 -19 -15
-25 -6 -3 5 1 10 9 10 9 0 16 -2 16 -4z m11 -82 l24 -27 -27 18 c-16 9 -28 21
-28 26 0 14 5 11 31 -17z m-1658 -50 c-6 -18 -19 -18 -26 -1 -3 7 3 13 14 14
12 1 16 -3 12 -13z m1618 -56 c33 -35 70 -80 81 -102 26 -50 8 -38 -33 22 -17
26 -47 60 -66 76 -32 28 -60 66 -48 66 3 0 33 -28 66 -62z m97 37 c-3 -3 -9 2
-12 12 -6 14 -5 15 5 6 7 -7 10 -15 7 -18z m-1708 -38 c0 -8 -11 -19 -25 -25
-21 -10 -25 -9 -25 5 0 9 3 14 6 10 4 -3 13 0 21 8 18 18 23 19 23 2z m1551
-14 c13 -15 12 -15 -8 -4 -24 12 -29 21 -14 21 5 0 15 -7 22 -17z m94 -122
c-6 -5 -25 10 -25 20 0 5 6 4 14 -3 8 -7 12 -15 11 -17z m-55 -11 c12 -16 19
-30 16 -30 -2 0 -14 14 -26 30 -12 17 -19 30 -16 30 2 0 14 -13 26 -30z m50
-70 c6 -11 8 -20 6 -20 -3 0 -10 9 -16 20 -6 11 -8 20 -6 20 3 0 10 -9 16 -20z
m70 -29 c0 -15 110 -117 114 -107 2 6 4 2 4 -9 -1 -27 16 -65 41 -94 24 -27
26 -37 9 -47 -6 -4 -8 -3 -5 3 4 5 -2 19 -12 30 -10 10 -24 29 -30 42 -20 36
-24 17 -6 -21 l17 -33 -20 20 c-12 11 -23 32 -26 47 -2 15 -8 33 -12 40 -6 9
-3 9 9 -1 38 -31 13 3 -48 64 -64 64 -80 90 -50 79 8 -4 15 -9 15 -13z m-65
-21 c10 -11 16 -22 14 -24 -2 -3 -14 6 -26 20 -12 13 -18 24 -14 24 4 0 16 -9
26 -20z m40 -21 c4 -11 10 -17 14 -15 4 3 7 -4 7 -15 0 -10 -1 -19 -2 -19 -1
0 -14 21 -28 46 -14 26 -19 41 -11 34 8 -6 17 -20 20 -31z m-89 -34 c14 -25
24 -48 22 -50 -2 -3 -16 18 -31 45 -34 63 -27 66 9 5z m-276 -57 c0 -13 -20
-9 -36 6 -16 17 -19 36 -4 36 6 0 10 10 10 23 1 15 5 10 15 -18 8 -22 15 -43
15 -47z m365 16 c28 -48 25 -77 -3 -35 -20 29 -43 93 -32 86 5 -3 20 -26 35
-51z m-107 1 c-3 -3 -9 2 -12 12 -6 14 -5 15 5 6 7 -7 10 -15 7 -18z m-69 -90
l0 -20 -8 20 c-5 11 -11 38 -14 60 l-6 40 14 -40 c7 -22 14 -49 14 -60z m300
-49 c70 -142 63 -147 -9 -6 -65 125 -64 124 -51 115 5 -3 32 -52 60 -109z
m-159 50 c0 -26 -6 -18 -14 19 -5 22 -4 26 4 15 5 -8 10 -24 10 -34z m-1703
-18 c-3 -8 -6 -5 -6 6 -1 11 2 17 5 13 3 -3 4 -12 1 -19z m2188 -108 c3 -5 2
-10 -4 -10 -5 0 -13 5 -16 10 -3 6 -2 10 4 10 5 0 13 -4 16 -10z m-636 -100
c11 -24 11 -24 -3 -6 -9 11 -16 24 -16 30 0 12 5 7 19 -24z m-245 -6 c3 -8 2
-12 -4 -9 -6 3 -10 10 -10 16 0 14 7 11 14 -7z m186 5 c0 11 4 10 19 -3 20
-18 91 -156 91 -176 0 -24 -20 3 -46 60 -15 33 -31 60 -36 60 -5 0 -1 -14 8
-31 9 -19 11 -28 4 -24 -9 5 -10 1 -5 -16 15 -48 15 -53 -1 -19 -9 19 -17 52
-18 72 -1 21 -10 46 -19 56 -9 10 -17 23 -17 28 0 5 5 2 10 -6 8 -12 10 -12
10 -1z m355 -8 c3 -5 1 -12 -5 -16 -5 -3 -10 1 -10 9 0 18 6 21 15 7z m35 -12
c0 -6 -4 -7 -10 -4 -5 3 -10 11 -10 16 0 6 5 7 10 4 6 -3 10 -11 10 -16z m77
8 c14 17 14 17 8 -2 -4 -11 -10 -28 -12 -37 -5 -15 -8 -14 -26 8 -16 22 -18
27 -6 35 10 6 15 4 17 -7 3 -13 6 -13 19 3z m-722 -67 c3 -22 2 -28 -3 -17 -4
10 -12 17 -17 15 -5 -2 -11 6 -12 17 l-3 20 9 -20 c8 -18 10 -18 10 -2 1 10
-6 20 -14 23 -8 4 -12 11 -9 16 10 16 33 -14 39 -52z m655 30 c0 -5 -5 -10
-11 -10 -5 0 -7 5 -4 10 3 6 8 10 11 10 2 0 4 -4 4 -10z m-196 -26 c3 -8 2
-12 -4 -9 -6 3 -10 10 -10 16 0 14 7 11 14 -7z m-604 -3 c0 -6 -4 -13 -10 -16
-5 -3 -10 1 -10 9 0 9 5 16 10 16 6 0 10 -4 10 -9z m-363 -23 c-3 -8 -6 -5 -6
6 -1 11 2 17 5 13 3 -3 4 -12 1 -19z m333 -12 c0 -8 7 -19 15 -26 17 -14 21
-35 5 -25 -5 3 -10 0 -10 -7 0 -10 -2 -10 -9 1 -7 11 -10 10 -14 -5 -2 -10 -5
5 -6 34 -1 33 3 51 9 47 6 -3 10 -12 10 -19z m233 -38 l4 -48 -19 25 c-17 22
-18 29 -6 55 15 34 15 34 21 -32z m-263 32 c0 -11 -4 -20 -9 -20 -5 0 -7 9 -4
20 3 11 7 20 9 20 2 0 4 -9 4 -20z m401 -45 c4 -3 4 -16 1 -27 -4 -17 -8 -13
-18 23 -17 54 -17 86 -1 42 7 -17 15 -34 18 -38z m-474 33 c-3 -8 -6 -5 -6 6
-1 11 2 17 5 13 3 -3 4 -12 1 -19z m524 -35 c13 -35 -8 -37 -25 -2 -14 27 -14
30 1 27 9 -2 19 -13 24 -25z m76 -25 c-3 -8 -6 -5 -6 6 -1 11 2 17 5 13 3 -3
4 -12 1 -19z m-474 -33 c-3 -9 -8 -14 -10 -11 -3 3 -2 9 2 15 9 16 15 13 8 -4z
m429 -74 l-6 -26 -7 30 c-3 17 -7 35 -9 40 -7 28 3 37 14 11 7 -15 10 -40 8
-55z m75 27 c-3 -7 -5 -2 -5 12 0 14 2 19 5 13 2 -7 2 -19 0 -25z"/>
<path d="M3524 7839 c-3 -6 -1 -16 5 -22 8 -8 11 -5 11 11 0 24 -5 28 -16 11z"/>
<path d="M4707 8154 c-3 -3 -3 -12 0 -20 4 -11 9 -12 19 -3 8 6 14 15 14 20 0
10 -24 12 -33 3z"/>
<path d="M2630 8139 c0 -5 5 -7 10 -4 6 3 10 8 10 11 0 2 -4 4 -10 4 -5 0 -10
-5 -10 -11z"/>
<path d="M2729 8086 c16 -19 44 -21 39 -3 -3 6 -15 14 -28 15 -21 3 -22 2 -11
-12z"/>
<path d="M2685 8070 c-3 -5 1 -10 9 -10 9 0 16 5 16 10 0 6 -4 10 -9 10 -6 0
-13 -4 -16 -10z"/>
<path d="M2556 8031 c-3 -4 6 -13 19 -19 14 -7 25 -8 25 -4 0 12 -39 32 -44
23z"/>
<path d="M500 8013 c0 -24 58 -47 81 -32 10 6 11 11 3 19 -15 15 -84 25 -84
13z"/>
<path d="M2417 7893 c-4 -3 -7 -11 -7 -17 0 -6 5 -5 12 2 6 6 9 14 7 17 -3 3
-9 2 -12 -2z"/>
<path d="M6382 7740 c0 -19 2 -27 5 -17 2 9 2 25 0 35 -3 9 -5 1 -5 -18z"/>
<path d="M6384 7692 c3 -6 2 -13 -4 -17 -12 -7 -4 -25 11 -25 13 0 11 37 -3
46 -6 4 -8 3 -4 -4z"/>
<path d="M6350 7620 c0 -5 7 -10 16 -10 8 0 12 5 9 10 -3 6 -10 10 -16 10 -5
0 -9 -4 -9 -10z"/>
<path d="M5231 7527 c2 -1 15 -11 29 -22 l25 -20 -19 23 c-11 12 -24 22 -29
22 -6 0 -8 -1 -6 -3z"/>
<path d="M4605 7240 c3 -5 10 -10 16 -10 5 0 9 5 9 10 0 6 -7 10 -16 10 -8 0
-12 -4 -9 -10z"/>
<path d="M2710 7230 c-9 -6 -10 -10 -3 -10 6 0 15 5 18 10 8 12 4 12 -15 0z"/>
<path d="M4608 7163 c7 -3 16 -2 19 1 4 3 -2 6 -13 5 -11 0 -14 -3 -6 -6z"/>
<path d="M4650 7161 c0 -9 34 -21 60 -21 11 1 10 4 -4 15 -22 16 -56 20 -56 6z"/>
<path d="M4590 7090 c14 -10 27 -16 30 -13 6 6 -30 33 -44 33 -6 0 0 -9 14
-20z"/>
<path d="M4390 7091 c0 -5 5 -13 10 -16 6 -3 10 -2 10 4 0 5 -4 13 -10 16 -5
3 -10 2 -10 -4z"/>
<path d="M5720 7080 c-13 -8 -12 -10 3 -10 11 0 30 -8 43 -19 32 -26 106 -35
149 -20 18 7 32 16 29 21 -3 4 5 8 18 9 39 2 -52 17 -142 23 -50 4 -91 2 -100
-4z"/>
<path d="M4551 7076 c2 -2 14 -9 26 -15 19 -10 22 -9 17 4 -4 8 -15 15 -27 15
-11 0 -18 -2 -16 -4z"/>
<path d="M1737 7063 c-14 -13 -6 -23 15 -20 28 5 36 27 11 27 -11 0 -23 -3
-26 -7z"/>
<path d="M4557 7004 c4 -10 0 -13 -13 -8 -11 3 -4 -4 13 -16 38 -26 90 -36 72
-14 -13 15 1 19 17 5 15 -14 64 -23 64 -11 0 5 -10 10 -23 10 -13 0 -28 5 -35
12 -6 6 -17 13 -24 14 -7 2 -27 7 -45 12 -26 8 -31 8 -26 -4z"/>
<path d="M5095 7000 c3 -5 16 -10 28 -10 18 0 19 2 7 10 -20 13 -43 13 -35 0z"/>
<path d="M4758 6963 c7 -3 16 -2 19 1 4 3 -2 6 -13 5 -11 0 -14 -3 -6 -6z"/>
<path d="M4818 6963 c7 -3 16 -2 19 1 4 3 -2 6 -13 5 -11 0 -14 -3 -6 -6z"/>
<path d="M5267 6943 c-4 -3 -2 -12 4 -20 9 -10 8 -13 -5 -13 -9 0 -16 -5 -16
-10 0 -19 55 -5 58 15 5 23 -25 44 -41 28z"/>
<path d="M4619 6890 c25 -21 41 -26 41 -12 0 9 -44 32 -58 32 -4 -1 4 -10 17
-20z"/>
<path d="M4685 6850 c3 -5 11 -10 16 -10 6 0 7 5 4 10 -3 6 -11 10 -16 10 -6
0 -7 -4 -4 -10z"/>
<path d="M4745 6830 c3 -5 14 -10 23 -10 15 0 15 2 2 10 -20 13 -33 13 -25 0z"/>
<path d="M4640 6755 c19 -19 38 -35 42 -35 5 0 22 -10 38 -22 16 -12 32 -19
36 -16 3 4 -4 11 -15 18 -12 6 -21 18 -21 26 0 8 4 13 9 10 5 -3 11 0 14 8 3
8 -1 17 -9 20 -8 3 -14 1 -14 -5 0 -6 -13 -1 -30 11 -30 22 -43 13 -15 -10 9
-7 13 -15 10 -18 -2 -3 -16 7 -29 21 -14 15 -31 27 -37 27 -7 0 2 -16 21 -35z"/>
<path d="M2675 6764 c-37 -19 -53 -34 -38 -34 7 0 15 5 18 10 3 6 14 10 23 10
9 0 26 7 36 15 27 20 0 20 -39 -1z"/>
<path d="M4960 6776 c0 -2 9 -6 20 -9 11 -3 18 -1 14 4 -5 9 -34 13 -34 5z"/>
<path d="M5040 6761 c0 -5 12 -14 28 -20 15 -6 32 -22 37 -34 6 -12 15 -22 20
-23 6 0 41 -10 79 -22 86 -28 106 -28 106 -1 0 27 -48 46 -129 50 -54 3 -68 8
-92 32 -27 27 -49 35 -49 18z"/>
<path d="M4798 6731 c37 -35 42 -37 42 -18 0 12 -26 30 -65 45 -5 2 5 -10 23
-27z"/>
<path d="M4865 6750 c-7 -12 55 -51 68 -43 5 3 6 -3 3 -14 -7 -21 25 -59 41
-50 5 3 31 -5 58 -18 27 -13 52 -22 55 -18 3 3 -1 8 -8 10 -6 3 -10 8 -7 12 2
4 -23 21 -55 36 -40 19 -56 31 -48 37 9 5 7 8 -7 8 -11 0 -37 11 -57 25 -21
14 -39 21 -43 15z"/>
<path d="M4778 6701 c26 -22 28 -33 5 -24 -11 4 -14 3 -9 -5 9 -15 26 -15 46
-2 13 9 12 13 -9 30 -13 11 -30 20 -39 20 -11 0 -10 -4 6 -19z"/>
<path d="M5010 6696 c0 -2 9 -6 20 -9 11 -3 20 -1 20 4 0 5 -9 9 -20 9 -11 0
-20 -2 -20 -4z"/>
<path d="M4880 6662 c0 -15 86 -82 105 -82 18 0 -2 22 -50 54 -30 20 -55 32
-55 28z"/>
<path d="M4660 6640 c0 -12 28 -25 36 -17 3 3 -4 10 -15 17 -15 7 -21 7 -21 0z"/>
<path d="M5220 6600 c14 -10 36 -24 50 -31 14 -6 33 -15 43 -20 13 -7 17 -5
17 8 0 13 -18 25 -58 41 -70 27 -85 28 -52 2z"/>
<path d="M4775 6580 c3 -5 8 -10 11 -10 2 0 4 5 4 10 0 6 -5 10 -11 10 -5 0
-7 -4 -4 -10z"/>
<path d="M4740 6575 c0 -2 10 -10 23 -16 20 -11 21 -11 8 4 -13 16 -31 23 -31
12z"/>
<path d="M4710 6522 c0 -12 19 -26 26 -19 2 2 -2 10 -11 17 -9 8 -15 8 -15 2z"/>
<path d="M4850 6510 c0 -5 18 -19 40 -30 46 -23 57 -25 38 -6 -22 21 -78 48
-78 36z"/>
<path d="M2755 6490 c-3 -5 -2 -10 4 -10 5 0 13 5 16 10 3 6 2 10 -4 10 -5 0
-13 -4 -16 -10z"/>
<path d="M4710 6482 c0 -4 7 -18 16 -31 15 -21 18 -22 26 -7 6 11 6 22 -2 32
-13 15 -40 19 -40 6z"/>
<path d="M5040 6481 c0 -10 31 -31 45 -31 11 0 -5 20 -26 30 -12 7 -19 7 -19
1z"/>
<path d="M2717 6465 c-10 -7 -14 -16 -9 -19 5 -3 15 1 22 9 17 21 9 27 -13 10z"/>
<path d="M4871 6444 c13 -14 23 -28 21 -31 -2 -2 0 -8 4 -11 4 -4 4 -1 0 6
-13 21 5 13 43 -20 20 -18 52 -44 71 -58 18 -14 45 -35 59 -46 23 -19 28 -20
40 -7 11 12 10 18 -10 39 -22 24 -46 34 -34 14 3 -5 2 -10 -4 -10 -5 0 -11 3
-13 8 -5 10 -75 62 -85 62 -5 0 -26 18 -47 40 -21 22 -45 40 -54 40 -12 0 -10
-6 9 -26z"/>
<path d="M5047 6439 c12 -12 25 -20 28 -17 3 3 -7 13 -22 23 l-28 17 22 -23z"/>
<path d="M4930 6442 c0 -12 18 -27 44 -36 17 -6 18 -5 4 16 -16 24 -48 37 -48
20z"/>
<path d="M2787 6423 c-4 -3 -7 -11 -7 -17 0 -6 5 -5 12 2 6 6 9 14 7 17 -3 3
-9 2 -12 -2z"/>
<path d="M2710 6395 c-25 -27 -25 -41 0 -22 23 19 43 47 33 47 -5 0 -20 -11
-33 -25z"/>
<path d="M4755 6410 c3 -5 8 -10 11 -10 2 0 4 5 4 10 0 6 -5 10 -11 10 -5 0
-7 -4 -4 -10z"/>
<path d="M4695 6390 c10 -11 20 -18 23 -15 7 6 -18 35 -31 35 -5 0 -2 -9 8
-20z"/>
<path d="M5085 6390 c14 -15 21 -17 26 -8 11 17 2 28 -23 28 -21 0 -21 -1 -3
-20z"/>
<path d="M5040 6394 c0 -6 6 -16 13 -23 10 -11 8 -11 -13 -1 l-25 13 19 -22
c11 -12 22 -18 25 -14 4 5 10 11 14 14 4 3 -2 14 -13 24 -11 10 -20 14 -20 9z"/>
<path d="M4900 6380 c0 -5 16 -17 35 -26 19 -9 35 -20 35 -25 0 -5 5 -9 12 -9
17 0 -40 57 -63 63 -10 3 -19 1 -19 -3z"/>
<path d="M5136 6381 c-3 -5 1 -14 9 -21 8 -7 12 -16 9 -21 -3 -5 3 -9 13 -9
15 0 16 -2 3 -10 -20 -12 -7 -23 35 -27 47 -5 67 8 71 45 4 30 3 30 -60 41
-75 13 -73 13 -80 2z"/>
<path d="M2735 6360 c-3 -5 -1 -10 4 -10 6 0 11 5 11 10 0 6 -2 10 -4 10 -3 0
-8 -4 -11 -10z"/>
<path d="M4990 6306 c0 -2 8 -10 18 -17 15 -13 16 -12 3 4 -13 16 -21 21 -21
13z"/>
<path d="M5035 6250 c3 -5 8 -10 11 -10 2 0 4 5 4 10 0 6 -5 10 -11 10 -5 0
-7 -4 -4 -10z"/>
<path d="M2679 6233 c-13 -16 -12 -17 4 -4 9 7 17 15 17 17 0 8 -8 3 -21 -13z"/>
<path d="M4990 6240 c0 -5 5 -10 11 -10 5 0 7 5 4 10 -3 6 -8 10 -11 10 -2 0
-4 -4 -4 -10z"/>
<path d="M5455 6229 c-27 -11 -60 -18 -72 -16 -39 7 -28 -30 33 -112 l55 -76
-58 62 c-42 45 -62 60 -73 53 -11 -7 -1 -25 45 -87 32 -43 62 -80 65 -83 4 -3
12 -16 19 -30 10 -20 8 -19 -10 5 -28 38 -149 155 -160 155 -5 0 -6 -7 -3 -15
4 -8 1 -15 -5 -15 -6 0 -11 -7 -11 -16 0 -14 -1 -14 -16 0 -8 9 -17 16 -20 16
-5 0 26 -81 37 -95 13 -18 87 -209 104 -270 11 -42 22 -61 33 -62 172 -13 179
-11 168 57 -8 49 5 52 22 6 7 -18 21 -41 32 -51 19 -17 21 -17 39 -1 11 10 21
30 23 45 3 26 8 28 41 16 11 -5 17 -2 17 6 0 8 14 23 30 34 17 11 30 29 30 41
0 11 4 24 9 30 6 5 11 34 12 65 2 56 3 57 41 70 28 9 38 17 37 33 -1 33 -33
81 -57 84 -15 2 -22 12 -24 35 -2 27 -8 33 -30 35 -19 2 -28 -1 -28 -11 0 -8
-7 -17 -15 -21 -8 -3 -15 -1 -15 4 0 6 -8 10 -17 10 -10 0 -32 13 -50 30 -17
16 -61 39 -97 51 -36 12 -66 26 -66 30 0 12 -6 11 -65 -12z m56 -246 c13 -16
12 -17 -3 -4 -10 7 -18 15 -18 17 0 8 8 3 21 -13z m-7 -89 c3 -8 2 -12 -4 -9
-6 3 -10 10 -10 16 0 14 7 11 14 -7z m34 -60 c-4 -3 -12 5 -18 18 -12 22 -12
22 6 6 10 -10 15 -20 12 -24z m37 -64 c9 -32 -7 -15 -24 25 -11 26 -11 28 2
15 8 -8 18 -26 22 -40z"/>
<path d="M4890 6212 c0 -5 7 -15 15 -22 8 -7 15 -8 15 -2 0 5 -7 15 -15 22 -8
7 -15 8 -15 2z"/>
<path d="M4930 6209 c0 -15 102 -119 111 -113 5 3 9 0 9 -5 0 -6 5 -11 12 -11
9 0 9 3 0 12 -18 18 -15 41 4 34 14 -5 15 -4 4 9 -7 8 -15 13 -19 11 -4 -3
-13 0 -21 5 -13 8 -13 10 -1 18 8 5 21 7 30 3 10 -3 8 4 -8 21 -29 32 -33 33
-24 10 6 -16 5 -16 -11 -4 -18 15 -86 22 -86 10z"/>
<path d="M2715 6169 c-4 -6 -5 -12 -2 -15 2 -3 7 2 10 11 7 17 1 20 -8 4z"/>
<path d="M4820 6176 c0 -2 7 -6 15 -10 8 -3 15 -1 15 4 0 6 -7 10 -15 10 -8 0
-15 -2 -15 -4z"/>
<path d="M5110 6168 c0 -9 7 -19 16 -22 15 -6 15 -4 3 11 -7 10 -15 20 -16 22
-2 2 -3 -3 -3 -11z"/>
<path d="M5224 5996 c2 -12 19 -57 40 -99 33 -69 64 -156 80 -229 7 -31 26
-38 26 -10 0 46 -45 195 -82 269 -41 83 -68 112 -64 69z"/>
<path d="M3406 5878 c-4 -19 -2 -36 5 -42 8 -8 9 -5 5 11 -4 12 -2 24 4 28 12
8 13 35 1 35 -5 0 -11 -14 -15 -32z"/>
<path d="M3941 5813 c-1 -17 4 -35 9 -38 12 -7 12 22 0 50 -7 17 -9 15 -9 -12z"/>
<path d="M3181 5793 c0 -25 1 -26 9 -8 12 27 12 35 0 35 -5 0 -10 -12 -9 -27z"/>
<path d="M2530 5679 c0 -5 5 -7 10 -4 6 3 10 8 10 11 0 2 -4 4 -10 4 -5 0 -10
-5 -10 -11z"/>
<path d="M4440 5670 c0 -5 5 -10 10 -10 6 0 10 5 10 10 0 6 -4 10 -10 10 -5 0
-10 -4 -10 -10z"/>
<path d="M3677 5630 c-3 -11 -1 -20 4 -20 5 0 9 9 9 20 0 11 -2 20 -4 20 -2 0
-6 -9 -9 -20z"/>
<path d="M3432 5620 c0 -14 2 -19 5 -12 2 6 2 18 0 25 -3 6 -5 1 -5 -13z"/>
<path d="M7955 5530 c-10 -11 -28 -20 -41 -20 -28 0 -49 -31 -32 -48 7 -7 18
-12 25 -12 7 0 10 -7 7 -15 -9 -22 14 -45 42 -43 26 2 42 36 29 58 -4 6 -1 17
5 25 10 12 10 15 0 15 -8 0 -11 9 -8 25 7 33 -5 39 -27 15z"/>
<path d="M6340 5220 c0 -6 -4 -9 -9 -5 -6 3 -18 -3 -28 -13 -21 -21 -67 -42
-92 -42 -22 0 -48 -26 -31 -32 11 -3 18 -25 19 -60 1 -11 9 -18 21 -18 13 0
20 -7 20 -20 0 -19 -4 -21 -38 -24 -20 -2 -32 -28 -32 -72 0 -74 -10 -102 -41
-116 -16 -7 -27 -18 -25 -23 4 -12 -140 -13 -151 -1 -4 4 -1 11 7 17 25 16 -8
29 -73 29 -44 0 -69 -6 -104 -26 -41 -23 -53 -25 -111 -18 -49 5 -67 3 -74 -7
-8 -11 -9 -10 -4 4 4 12 0 17 -13 17 -10 0 -21 7 -25 15 -3 8 -12 15 -21 15
-8 0 -15 4 -15 9 0 18 -58 70 -86 77 -16 4 -39 13 -50 21 -16 10 -37 12 -75 7
-55 -7 -66 -6 -61 10 2 5 -9 6 -23 4 -14 -3 -25 -2 -25 1 0 13 -208 61 -265
61 -17 0 -35 4 -40 8 -6 5 -35 14 -65 21 -30 7 -70 19 -88 28 -47 21 -90 20
-107 -3 -18 -25 -29 -113 -21 -167 9 -55 26 -104 70 -199 42 -93 46 -130 20
-185 -14 -31 -26 -42 -47 -45 -15 -3 -30 -1 -33 4 -3 4 -12 8 -21 8 -21 0
-111 95 -158 166 -43 65 -75 100 -102 108 -10 3 -70 5 -133 5 -277 -2 -381 1
-399 10 -10 6 -36 5 -64 -1 -39 -8 -57 -6 -97 8 -28 10 -50 24 -50 31 0 8 -13
13 -36 13 -26 0 -43 7 -60 26 -13 14 -24 29 -24 34 0 21 24 59 34 53 6 -3 5 0
-1 8 -7 7 -13 21 -13 31 0 11 -7 18 -19 18 -11 0 -22 4 -25 8 -6 11 -96 -9
-96 -21 0 -5 -8 -6 -18 -3 -19 7 -62 -23 -62 -42 0 -6 -8 -13 -17 -16 -23 -7
-86 -67 -138 -129 -41 -49 -63 -95 -64 -134 -1 -13 -5 -23 -11 -23 -13 0 -13
-137 0 -145 6 -3 10 -31 10 -62 0 -44 5 -61 25 -85 14 -16 25 -36 25 -44 0 -8
8 -14 17 -14 9 0 13 -3 10 -7 -11 -10 24 -43 45 -43 10 0 18 -7 18 -15 0 -8
11 -25 25 -39 21 -21 25 -35 25 -84 0 -36 6 -66 15 -78 8 -10 15 -35 15 -55 0
-23 7 -42 20 -54 11 -10 20 -26 20 -37 0 -34 41 -18 110 46 8 7 34 23 57 35
23 11 44 25 48 31 8 13 65 13 65 0 0 -5 7 -10 16 -10 9 0 27 -9 41 -20 14 -11
32 -20 39 -20 8 0 14 -4 14 -9 0 -5 12 -14 28 -20 46 -18 138 -89 163 -126 13
-19 30 -35 38 -35 8 0 23 -8 34 -17 15 -15 38 -18 118 -18 65 0 102 4 110 13
7 6 29 12 48 12 20 0 45 7 55 15 11 8 31 15 45 15 14 0 37 7 51 15 94 53 149
73 220 78 42 3 84 1 93 -5 10 -5 56 -12 102 -15 64 -4 97 -1 142 13 70 21 170
68 238 112 28 17 57 32 65 32 8 0 33 16 54 35 22 19 44 35 50 35 5 0 17 6 25
14 9 7 39 18 66 24 28 6 93 23 145 37 119 33 173 30 210 -12 14 -16 34 -33 45
-37 16 -6 17 -9 5 -16 -11 -7 -9 -11 13 -19 15 -6 27 -15 27 -21 0 -6 13 -16
29 -21 20 -7 28 -15 24 -25 -6 -16 15 -46 27 -39 4 2 15 -4 25 -15 10 -12 13
-20 7 -20 -7 0 -12 -11 -12 -25 0 -19 -7 -26 -37 -34 -24 -7 -39 -7 -43 -1 -7
11 -146 3 -171 -11 -10 -5 -31 -6 -48 -3 -26 6 -30 4 -25 -10 5 -12 0 -16 -19
-16 -39 0 -50 -21 -32 -62 16 -41 30 -48 90 -48 40 0 44 -2 50 -30 8 -38 -2
-120 -18 -140 -7 -8 -24 -21 -39 -29 -18 -9 -28 -23 -28 -36 0 -13 -10 -27
-25 -35 -36 -19 -31 -32 19 -53 43 -18 44 -19 34 -48 -5 -16 -14 -29 -20 -29
-5 0 -6 5 -3 10 4 6 -5 10 -19 10 -14 0 -26 -4 -26 -10 0 -5 3 -10 8 -10 4 0
5 -25 4 -55 -3 -45 -1 -55 12 -55 9 0 16 -3 16 -7 0 -5 19 -19 41 -33 31 -19
43 -34 52 -67 9 -35 14 -40 28 -32 15 8 17 5 13 -16 -2 -14 1 -35 8 -48 8 -13
13 -61 13 -125 0 -77 3 -105 14 -111 8 -5 15 -18 16 -28 0 -10 11 -29 23 -41
12 -12 22 -29 22 -37 0 -8 7 -15 15 -15 8 0 15 -4 15 -10 0 -5 11 -20 25 -34
14 -14 25 -32 25 -41 0 -8 6 -15 14 -15 8 0 18 -9 21 -21 4 -11 12 -18 18 -16
13 4 14 59 2 93 -6 20 -2 22 51 26 32 3 74 1 94 -3 19 -5 56 -9 83 -9 26 0 47
-4 47 -10 0 -5 7 -10 15 -10 8 0 15 5 15 10 0 16 66 12 80 -4 6 -8 32 -23 56
-32 42 -16 46 -16 62 0 13 13 14 20 5 35 -9 14 -8 20 7 31 14 10 16 18 9 32
-6 12 -6 18 1 19 5 1 14 2 19 3 5 0 13 4 17 9 4 4 31 7 61 7 l53 0 0 55 0 55
44 -3 c31 -1 50 4 65 17 22 20 51 15 51 -9 0 -11 4 -13 13 -8 6 4 35 10 62 13
46 5 50 7 53 33 2 15 -1 27 -6 27 -6 0 -13 18 -17 40 -6 33 -11 40 -30 40 -12
0 -34 9 -49 21 -21 16 -26 29 -26 64 0 24 -5 47 -10 50 -6 4 -7 12 -4 18 5 8
3 8 -7 0 -18 -17 -29 -16 -29 2 0 8 -6 15 -14 15 -8 0 -34 18 -57 40 -24 22
-51 42 -60 45 -17 6 -49 62 -49 87 0 8 -7 23 -15 34 -8 10 -15 26 -15 35 0 9
-7 19 -15 23 -8 3 -15 15 -15 27 0 17 3 19 14 10 9 -7 17 -8 20 -2 3 5 0 12
-6 14 -8 3 -6 6 5 6 9 1 17 -6 17 -14 0 -12 15 -15 79 -15 61 0 80 3 85 15 3
9 18 15 38 15 38 0 48 6 66 38 10 19 10 23 -2 28 -8 3 -13 11 -10 18 3 7 -5
18 -18 24 -13 6 -17 11 -10 11 18 1 15 18 -5 26 -41 16 -161 42 -196 42 -55 1
-89 35 -81 80 4 24 2 34 -8 38 -23 9 -10 55 18 65 14 6 24 18 24 29 0 11 10
27 22 35 17 12 22 24 20 53 -2 20 -8 43 -15 51 -9 11 -5 19 21 41 18 14 32 31
32 38 0 7 11 23 24 36 24 24 24 26 21 193 -2 147 -6 177 -26 230 -25 65 -21
94 11 94 23 0 23 0 10 35 -6 16 -6 33 -1 43 5 9 12 33 15 52 3 19 12 58 19 87
l14 52 -37 36 c-29 29 -43 35 -78 35 -29 0 -48 6 -63 21 -25 25 -21 53 9 57
12 2 22 10 22 18 0 15 -45 37 -64 31 -6 -2 -17 2 -24 9 -7 8 -21 18 -30 23
-12 7 -14 13 -6 21 8 8 14 7 24 -5 7 -8 19 -15 28 -15 8 0 12 3 9 7 -4 3 -2
12 3 18 7 9 5 17 -6 26 -10 8 -19 13 -21 12 -10 -8 -31 -1 -49 15 -23 21 -164
32 -164 12z"/>
<path d="M9481 3553 c-14 -13 -31 -23 -38 -23 -18 0 -53 -50 -53 -76 0 -41 73
-62 85 -24 3 11 11 20 16 20 5 0 9 6 9 13 0 7 9 23 20 35 11 12 20 28 20 36 0
8 5 18 10 21 6 4 8 10 5 15 -9 15 -46 6 -74 -17z"/>
<path d="M6950 3559 c0 -5 5 -7 10 -4 6 3 10 8 10 11 0 2 -4 4 -10 4 -5 0 -10
-5 -10 -11z"/>
<path d="M11050 3345 c-38 -22 -70 -35 -84 -35 -7 0 -41 -14 -76 -31 -35 -17
-106 -46 -159 -66 -53 -19 -118 -45 -146 -57 -27 -12 -70 -28 -95 -35 -25 -7
-67 -24 -95 -36 -27 -13 -75 -31 -105 -40 -30 -10 -64 -21 -75 -26 -11 -4 -45
-15 -75 -25 -30 -9 -59 -20 -65 -25 -5 -5 -26 -9 -47 -9 -26 0 -41 -5 -45 -16
-4 -12 -14 -14 -42 -9 -20 4 -78 8 -128 10 -85 1 -93 0 -93 -17 0 -50 77 -153
165 -221 88 -69 146 -101 216 -121 40 -12 60 -24 69 -42 8 -13 19 -22 27 -20
7 3 21 -5 31 -18 11 -15 34 -26 62 -31 46 -8 89 -30 103 -52 4 -7 18 -11 30
-10 12 2 17 2 11 0 -15 -5 10 -59 31 -66 7 -3 35 -4 60 -1 51 4 68 -6 85 -51
5 -14 20 -30 32 -35 14 -5 17 -9 8 -10 -9 -1 -5 -5 8 -11 13 -5 22 -14 20 -21
-5 -14 50 -68 69 -68 7 0 13 -9 13 -19 0 -10 8 -22 17 -25 15 -6 15 -8 3 -16
-9 -6 -10 -10 -3 -10 6 0 33 -20 59 -44 38 -36 53 -44 73 -40 29 6 81 -30 81
-56 0 -13 2 -13 11 0 9 13 12 13 22 -4 25 -39 45 -61 51 -55 3 3 5 337 4 742
l-3 736 -25 -14z"/>
<path d="M7040 3230 c0 -6 -9 -10 -19 -10 -11 0 -23 -5 -26 -11 -5 -7 6 -9 31
-7 39 3 56 21 29 31 -8 4 -15 2 -15 -3z"/>
<path d="M6903 3163 c-3 -10 -11 -21 -17 -25 -7 -5 -4 -8 7 -8 9 0 17 -6 17
-14 0 -18 11 -25 47 -30 47 -6 83 -18 83 -27 0 -5 7 -9 15 -9 11 0 15 -11 15
-38 0 -53 27 -68 66 -37 24 20 27 27 18 42 -6 9 -22 21 -35 24 -13 4 -18 7
-11 8 6 1 12 8 12 17 0 8 5 12 10 9 11 -7 13 15 4 39 -3 9 -10 13 -16 10 -5
-3 -12 3 -15 14 -4 17 -16 22 -71 27 -37 3 -79 9 -95 11 -20 4 -29 1 -34 -13z"/>
<path d="M7356 2885 c-7 -18 -57 -20 -74 -3 -9 9 -15 8 -25 -6 -8 -11 -22 -17
-38 -14 -31 4 -62 -28 -53 -56 7 -23 21 -41 32 -41 17 -1 52 -27 52 -39 0 -7
11 -22 25 -32 14 -10 25 -23 25 -29 0 -5 14 -21 30 -34 31 -24 40 -56 18 -64
-7 -2 -9 -8 -5 -13 5 -5 13 -1 18 8 8 15 14 13 44 -21 26 -29 35 -47 35 -74 0
-24 6 -40 19 -49 12 -8 22 -32 26 -61 7 -43 10 -47 41 -53 38 -7 56 -30 48
-60 -3 -11 3 -29 15 -43 11 -13 18 -27 15 -32 -2 -5 2 -20 11 -33 9 -14 19
-44 21 -68 11 -102 44 -212 58 -189 11 17 49 -6 42 -25 -3 -8 1 -17 9 -20 21
-9 52 -63 60 -106 4 -21 13 -38 19 -38 7 0 13 -16 14 -36 2 -20 8 -46 14 -57
6 -11 12 -42 14 -69 3 -42 1 -48 -16 -48 -11 0 -20 4 -20 9 0 4 -18 11 -41 14
-23 3 -51 14 -62 24 -12 11 -44 30 -72 44 -27 13 -57 31 -65 40 -8 8 -23 18
-32 22 -10 3 -18 13 -18 21 0 9 -19 37 -42 64 -24 27 -48 57 -54 68 -10 17
-14 18 -45 5 -19 -7 -46 -16 -61 -18 -22 -4 -28 -11 -30 -32 -1 -14 -2 -34 -3
-43 -1 -23 -10 -30 -39 -33 -14 -2 -27 3 -30 11 -7 19 -54 18 -74 -2 -14 -15
-34 -16 -146 -11 -78 3 -132 10 -134 16 -2 6 -32 11 -71 11 l-67 0 -12 -34
c-7 -18 -10 -41 -6 -50 5 -13 -1 -16 -39 -16 -54 0 -72 16 -58 53 8 20 6 31
-9 50 -11 13 -24 45 -29 69 -6 25 -16 58 -22 74 -6 16 -13 53 -15 83 -3 38
-10 61 -24 73 -11 10 -20 25 -20 33 0 8 -13 28 -30 45 -16 17 -30 39 -30 49 0
19 -26 36 -33 23 -2 -4 -7 -19 -11 -35 -4 -19 -3 -26 6 -25 7 2 14 -8 16 -22
2 -14 8 -30 12 -35 5 -6 5 -17 0 -25 -7 -12 -12 -12 -22 -2 -9 9 -9 12 0 12 7
0 12 5 12 11 0 8 -5 8 -15 -1 -24 -20 -45 -4 -45 34 0 22 6 36 16 40 14 5 16
16 11 57 -9 73 -47 113 -47 49 0 -33 -19 -41 -27 -11 -3 11 -17 22 -33 26 -32
7 -80 -3 -80 -17 0 -5 4 -7 9 -4 5 3 11 -1 15 -9 4 -10 -1 -15 -14 -15 -13 0
-20 -7 -20 -18 0 -14 -7 -17 -39 -14 -32 3 -39 0 -44 -17 -3 -14 -10 -19 -21
-15 -9 3 -16 1 -16 -5 0 -6 -17 -11 -39 -11 -36 0 -71 -19 -71 -39 0 -5 -18
-8 -40 -8 -54 0 -72 -17 -69 -67 3 -62 1 -70 -22 -95 -13 -14 -23 -39 -25 -64
-1 -23 -7 -43 -13 -45 -6 -2 -11 -10 -11 -17 0 -22 -31 -48 -43 -36 -16 16
-35 13 -68 -11 -28 -21 -30 -27 -28 -76 3 -60 -7 -75 -61 -90 -25 -7 -29 -10
-12 -11 15 -1 22 -7 22 -20 0 -14 -5 -18 -19 -14 -11 3 -22 11 -25 19 -6 16
-36 19 -36 4 0 -5 -18 -10 -40 -10 -22 0 -40 5 -40 10 0 6 -18 10 -40 10 -38
0 -40 -2 -40 -30 0 -16 -4 -30 -10 -30 -5 0 -10 -4 -10 -10 0 -5 6 -10 13 -10
9 0 12 -10 9 -30 -4 -28 -7 -30 -47 -30 -29 0 -47 6 -60 20 -10 11 -22 17 -27
14 -4 -3 -7 0 -6 7 2 6 -3 14 -9 16 -8 3 -13 -3 -13 -15 0 -11 -9 -22 -21 -25
-13 -3 -20 -12 -18 -24 1 -10 -1 -35 -5 -55 -8 -36 -10 -38 -46 -38 -37 0 -38
1 -45 43 -9 58 -23 84 -51 91 -13 4 -24 11 -24 16 0 6 -7 10 -15 10 -8 0 -21
13 -30 29 -8 16 -24 32 -35 36 -11 3 -19 12 -17 18 1 8 -15 13 -45 15 -29 2
-48 -1 -48 -7 0 -6 -11 -11 -25 -11 -22 0 -25 -4 -25 -40 0 -29 -4 -40 -15
-40 -11 0 -15 -11 -15 -39 0 -41 -20 -71 -46 -71 -8 0 -14 5 -14 11 0 15 -30
43 -38 35 -3 -4 -1 -11 7 -15 7 -5 11 -19 9 -32 l-4 -24 -14 28 c-16 34 -24
34 -38 1 -7 -14 -17 -22 -23 -19 -12 8 -51 -24 -43 -36 10 -17 -17 -50 -36
-44 -25 8 -50 -30 -50 -77 0 -27 -4 -38 -15 -38 -8 0 -15 -5 -15 -10 0 -6 -12
-22 -27 -36 -20 -19 -24 -27 -15 -33 8 -5 13 -27 12 -57 -1 -27 2 -61 5 -76 7
-26 5 -28 -24 -28 -17 0 -31 5 -31 10 0 6 -18 10 -40 10 -22 0 -40 -4 -40 -10
0 -19 -28 -10 -44 15 -9 14 -27 27 -41 31 -23 6 -25 11 -25 60 0 39 4 56 15
60 27 11 16 33 -20 40 -19 3 -38 10 -41 15 -3 5 -13 9 -24 9 -10 0 -20 7 -24
15 -3 8 -22 23 -43 33 -21 9 -41 22 -45 29 -5 6 -24 10 -43 8 -19 -2 -35 1
-35 6 0 5 -25 9 -55 9 -42 0 -55 3 -55 15 0 11 -11 15 -40 15 -38 0 -40 2 -40
30 0 28 -2 30 -40 30 l-40 0 0 -55 c0 -30 5 -55 10 -55 6 0 10 -37 10 -90 0
-53 -4 -90 -10 -90 -5 0 -10 -13 -10 -30 0 -20 -5 -30 -15 -30 -11 0 -15 -11
-15 -40 0 -34 -4 -41 -24 -46 -24 -6 -36 -21 -42 -57 -3 -13 1 -16 19 -14 12
2 16 2 10 0 -17 -6 -16 -19 1 -46 15 -22 17 -52 11 -165 -3 -56 -14 -99 -16
-61 0 8 -4 6 -9 -6 -7 -17 -9 -17 -9 -2 -1 13 -10 17 -36 17 -19 0 -35 -4 -35
-9 0 -5 -18 -28 -40 -50 -35 -36 -47 -41 -85 -41 -26 0 -45 5 -48 13 -3 9 -7
9 -19 -1 -13 -10 -18 -8 -32 12 -9 14 -16 32 -16 39 0 8 -8 25 -19 38 -24 32
-58 140 -66 214 -4 33 -15 77 -26 98 -10 21 -19 47 -19 58 0 11 -6 22 -14 25
-10 4 -13 15 -9 39 3 18 1 35 -6 39 -7 5 -8 1 -4 -10 4 -12 3 -15 -5 -10 -7 4
-12 16 -12 27 0 14 -7 19 -29 19 -16 0 -31 6 -34 13 -2 6 -4 -28 -3 -78 l1
-90 -28 -3 c-19 -2 -34 -14 -47 -35 -10 -18 -24 -38 -30 -44 -8 -9 -8 -19 0
-33 6 -11 8 -25 5 -30 -4 -6 -1 -9 7 -8 7 2 15 11 18 21 3 10 10 18 15 18 6 1
16 5 22 11 9 7 15 5 20 -7 8 -23 -29 -55 -63 -55 -13 0 -24 -5 -24 -12 0 -6
-9 -22 -21 -34 -14 -15 -22 -40 -26 -81 -5 -54 -3 -61 18 -79 22 -17 24 -26
22 -102 -2 -108 -18 -137 -71 -127 -47 9 -52 12 -52 36 0 22 -18 25 -45 5 -15
-11 -17 -22 -12 -64 4 -37 2 -54 -9 -62 -8 -7 -14 -19 -14 -26 0 -8 -7 -14
-15 -14 -8 0 -15 -7 -15 -15 0 -9 -9 -15 -25 -15 -20 0 -25 -5 -25 -25 0 -18
-5 -25 -19 -25 -22 0 -35 -23 -36 -62 l-1 -28 4288 0 4288 0 0 676 0 676 -21
-23 c-11 -13 -17 -18 -13 -10 5 9 -2 7 -18 -5 -14 -10 -24 -24 -21 -30 2 -6
-7 -21 -21 -32 -14 -11 -26 -25 -26 -31 0 -6 -6 -11 -13 -11 -7 0 -18 -9 -24
-19 -7 -11 -28 -27 -48 -36 -19 -10 -32 -21 -29 -26 3 -5 -3 -19 -13 -32 -16
-19 -25 -21 -68 -17 -34 3 -50 10 -50 19 0 12 -46 46 -92 67 -7 3 -10 11 -6
17 3 5 -2 16 -12 23 -10 8 -16 17 -12 20 3 3 -5 17 -18 30 -14 14 -22 31 -18
39 3 9 -1 23 -10 33 -8 9 -18 27 -21 39 -4 12 -22 37 -40 55 -36 36 -66 88
-66 113 0 9 -8 18 -17 22 -39 13 -53 36 -53 82 0 48 -17 87 -27 64 -10 -27
-23 -11 -23 27 0 29 -4 40 -15 40 -17 0 -21 59 -5 78 6 6 7 10 4 7 -4 -2 -16
14 -27 37 -12 23 -23 36 -25 30 -4 -14 -24 3 -35 31 -3 9 -11 17 -17 17 -6 0
-8 -5 -4 -12 4 -7 3 -8 -4 -4 -7 4 -12 18 -12 32 0 15 -6 24 -15 24 -11 0 -15
-11 -15 -39 0 -22 -5 -41 -11 -43 -8 -3 -7 -13 4 -34 9 -17 16 -55 16 -87 0
-60 6 -81 22 -71 21 13 49 -34 49 -81 l0 -45 55 0 c30 0 55 -4 55 -10 0 -15
-157 -13 -163 3 -4 7 -20 -4 -45 -30 -33 -35 -47 -43 -76 -43 -25 0 -36 -4
-36 -15 0 -20 -66 -20 -86 0 -9 8 -11 15 -5 15 6 0 11 11 11 25 0 23 -4 25
-40 25 -37 0 -40 2 -40 27 0 21 -3 24 -12 15 -17 -17 -145 -16 -151 1 -4 10
-7 10 -18 0 -21 -21 -75 -16 -91 8 -13 20 -17 21 -66 10 -64 -13 -107 -1 -99
29 4 15 -1 20 -22 22 -20 2 -27 9 -29 30 -2 16 -11 30 -22 33 -10 3 -23 19
-28 35 -8 22 -19 30 -46 35 -19 4 -39 4 -45 0 -7 -4 -11 10 -11 39 0 44 -1 45
-41 56 -30 8 -39 15 -35 28 2 9 7 27 11 40 4 13 2 22 -4 22 -6 0 -11 6 -11 13
0 15 -73 14 -78 -2 -9 -27 -22 -7 -22 34 0 51 -32 95 -70 95 -11 0 -20 5 -20
10 0 6 -11 10 -25 10 -20 0 -25 5 -25 25 0 25 -16 50 -59 92 -17 16 -36 23
-62 23 -22 0 -39 5 -39 11 0 7 -9 9 -24 5 -15 -4 -28 0 -36 9 -8 9 -30 15 -56
15 -26 0 -44 5 -44 11 0 20 -61 1 -86 -26 -28 -30 -38 -31 -64 -5 -11 11 -22
15 -25 10 -4 -6 -1 -10 4 -10 6 0 11 -7 11 -15 0 -18 -24 -20 -38 -2 -6 7 -13
24 -16 37 -7 38 -17 60 -28 60 -6 0 -7 -7 -4 -16 7 -19 -19 -43 -47 -44 -11 0
-21 9 -24 20 -4 16 -14 20 -53 20 -40 0 -48 3 -58 25 -7 14 -12 37 -12 50 0
15 -6 25 -14 25 -8 0 -16 7 -20 15 -4 10 -20 15 -54 15 -35 0 -54 5 -65 18
-21 24 -21 32 0 32 13 0 10 7 -12 30 -16 17 -35 30 -42 30 -7 0 -13 5 -13 10
0 6 -13 10 -30 10 -20 0 -30 5 -30 15 0 11 -11 15 -40 15 -29 0 -40 4 -40 15
0 12 -16 15 -80 15 -47 0 -80 4 -80 10 0 6 -7 10 -15 10 -13 0 -22 -38 -16
-72 0 -5 -8 -8 -18 -8 -15 0 -19 -5 -16 -23 4 -19 -2 -25 -42 -40 -36 -13 -48
-15 -54 -5 -4 7 -5 16 -2 21 6 10 53 31 81 36 4 1 0 6 -8 11 -12 8 -13 12 -2
19 8 4 13 14 12 22 -4 29 1 39 20 39 21 0 26 19 11 48 -5 9 -12 26 -16 37 -6
19 -7 19 -17 2 -7 -14 -17 -17 -41 -11 -35 7 -87 55 -87 79 0 19 -26 20 -34 0z
m2564 -1425 c0 -5 -5 -10 -11 -10 -5 0 -7 5 -4 10 3 6 8 10 11 10 2 0 4 -4 4
-10z m-5303 -336 c-3 -3 -12 -4 -19 -1 -8 3 -5 6 6 6 11 1 17 -2 13 -5z m6128
-84 c-3 -5 -10 -10 -16 -10 -5 0 -9 5 -9 10 0 6 7 10 16 10 8 0 12 -4 9 -10z
m-7751 -188 c7 -11 -6 -27 -26 -35 -21 -7 -22 -3 -8 24 11 20 25 25 34 11z
m-104 -459 c-1 -24 -2 -26 -11 -10 -5 9 -7 22 -4 27 10 17 15 11 15 -17z"/>
<path d="M7002 2815 c-16 -9 -19 -14 -10 -17 21 -7 48 3 48 18 0 17 -7 16 -38
-1z"/>
<path d="M2375 2760 c3 -5 10 -10 16 -10 5 0 9 5 9 10 0 6 -7 10 -16 10 -8 0
-12 -4 -9 -10z"/>
<path d="M2383 2655 c0 -14 3 -28 8 -31 18 -11 8 -25 -28 -42 -49 -22 -55 -32
-38 -59 17 -25 20 -113 5 -113 -5 0 -10 -13 -10 -29 0 -18 -8 -35 -18 -43 -25
-18 -42 -71 -42 -129 0 -38 4 -51 20 -59 21 -11 27 -44 10 -55 -6 -4 -25 -1
-44 5 -38 12 -63 6 -63 -16 0 -12 8 -15 29 -12 33 5 54 -14 42 -39 -8 -18 -11
-29 -13 -50 -1 -7 -15 -9 -41 -6 -38 5 -49 -2 -32 -23 12 -13 36 -93 31 -99
-3 -2 -16 -6 -30 -8 -20 -3 -25 -10 -27 -40 -2 -29 0 -37 13 -37 13 0 14 -4 4
-22 -7 -13 -18 -27 -25 -31 -8 -4 -14 -18 -14 -31 0 -61 -12 -85 -54 -110 -70
-41 -88 -75 -30 -57 64 21 84 22 84 6 0 -24 -79 -89 -123 -100 -22 -6 -45 -19
-51 -30 -6 -11 -15 -23 -20 -26 -5 -4 -9 -28 -10 -54 -1 -47 -2 -48 -44 -61
-33 -9 -44 -9 -47 -1 -7 19 1 51 13 55 7 2 10 7 7 12 -3 4 2 21 10 36 20 40
19 47 -9 40 -18 -4 -25 -1 -29 14 -3 12 1 24 11 30 13 7 6 9 -26 10 -31 0 -42
-4 -39 -12 5 -14 -23 -68 -34 -68 -10 0 -19 -45 -24 -120 -2 -35 -9 -66 -16
-71 -6 -4 -10 -18 -7 -32 4 -23 0 -27 -38 -37 -23 -7 -47 -10 -52 -6 -5 3 -12
26 -15 51 -6 59 -12 64 -38 32 -26 -34 -47 -34 -55 -2 -9 35 -20 31 -48 -17
-41 -72 -50 -118 -32 -161 8 -20 20 -37 25 -37 16 0 13 -51 -4 -80 -20 -35
-19 -124 1 -141 11 -9 14 -23 11 -43 -3 -17 -3 -25 0 -18 7 17 23 5 23 -18 0
-21 -29 -35 -44 -20 -14 14 -26 13 -26 -2 0 -7 -21 -34 -47 -60 -46 -47 -55
-82 -10 -40 29 27 33 27 40 2 8 -31 -38 -107 -68 -112 -14 -3 -25 -1 -25 3 0
5 -12 3 -26 -3 -18 -9 -30 -9 -43 -1 -20 13 -70 5 -88 -13 -7 -7 -17 -23 -22
-36 -7 -19 -14 -22 -49 -20 -35 3 -43 0 -58 -23 -17 -26 -41 -99 -51 -159 -4
-18 -1 -31 8 -37 11 -6 11 -11 1 -21 -6 -6 -12 -24 -12 -38 0 -14 -7 -35 -15
-46 -14 -18 -16 -18 -29 -1 -13 16 -14 15 -18 -13 l-5 -30 463 0 462 0 11 45
c6 25 16 45 21 45 6 0 10 8 10 18 0 11 9 27 19 36 10 10 22 33 25 51 4 19 16
41 27 48 19 14 26 42 35 156 4 59 14 71 58 71 26 0 28 2 21 28 -9 30 -10 44
-7 115 2 40 6 49 26 57 21 8 24 14 21 52 -3 50 29 114 71 146 25 18 27 25 29
98 1 47 8 94 18 114 43 95 57 135 57 158 0 36 35 88 78 113 63 38 67 55 17 65
l-35 6 0 60 c0 57 3 64 40 104 33 36 39 49 36 80 -1 21 -9 40 -19 46 -25 14
-20 49 11 75 l27 23 -22 16 c-32 23 -31 80 2 128 16 24 25 51 25 76 0 21 4 41
9 45 5 3 12 31 16 63 3 31 13 82 22 112 12 41 15 96 15 223 -1 184 -6 215 -27
197 -9 -8 -15 -8 -20 0 -12 19 -32 10 -32 -15z m-218 -1255 c-3 -5 -12 -10
-18 -10 -7 0 -6 4 3 10 19 12 23 12 15 0z m-159 -168 c1 -19 -7 -44 -18 -58
-13 -15 -17 -31 -13 -45 4 -13 1 -27 -10 -39 -10 -12 -14 -26 -10 -39 8 -27
-11 -61 -34 -61 -11 0 -21 -7 -25 -15 -7 -19 -23 -19 -44 1 -14 15 -18 12 -43
-37 -16 -30 -28 -64 -29 -76 0 -12 -6 -23 -12 -26 -10 -3 -10 -10 2 -31 20
-38 4 -60 -46 -64 -60 -4 -67 -8 -54 -32 9 -17 6 -23 -22 -40 -44 -27 -48 -26
-48 14 0 19 -4 38 -10 41 -31 19 5 70 58 81 23 5 34 14 42 37 6 19 7 34 1 40
-16 16 33 92 109 166 68 67 72 73 57 89 -13 12 -17 13 -17 3 0 -16 -29 -40
-47 -41 -26 0 -12 26 40 76 81 78 107 95 141 92 28 -3 31 -7 32 -36z m-509
-160 c-3 -51 -14 -67 -34 -51 -16 14 -12 62 8 85 18 21 29 6 26 -34z m153
-100 c0 -5 -11 -19 -25 -32 -14 -13 -25 -35 -25 -50 0 -14 -7 -36 -16 -48 -22
-31 -44 -12 -44 37 1 41 19 71 44 71 9 0 16 4 16 9 0 8 16 16 43 20 4 0 7 -3
7 -7z m-88 -249 c11 -47 -11 -65 -47 -40 -17 13 -17 15 3 35 27 27 38 28 44 5z
m216 -85 c-5 -15 -35 -34 -43 -27 -3 4 -3 14 1 23 7 18 48 23 42 4z m-178 -48
c0 -12 -28 -25 -36 -17 -9 9 6 27 22 27 8 0 14 -5 14 -10z m-193 -227 c-9 -9
-19 -14 -23 -11 -10 10 6 28 24 28 15 0 15 -1 -1 -17z m-167 -148 c0 -34 -27
-75 -50 -75 -13 0 -28 32 -22 50 7 23 44 60 59 60 8 0 13 -13 13 -35z"/>
<path d="M8152 2430 c0 -14 2 -19 5 -12 2 6 2 18 0 25 -3 6 -5 1 -5 -13z"/>
<path d="M6145 2211 c-3 -5 -1 -12 5 -16 5 -3 10 1 10 9 0 18 -6 21 -15 7z"/>
<path d="M2145 2080 c-8 -13 -1 -24 14 -19 6 3 7 10 2 18 -6 10 -10 10 -16 1z"/>
<path d="M1605 1940 c-3 -5 3 -10 14 -10 12 0 21 5 21 10 0 6 -6 10 -14 10 -8
0 -18 -4 -21 -10z"/>
<path d="M10080 1668 c0 -12 -7 -30 -17 -40 -15 -17 -15 -18 10 -18 25 0 27 3
27 40 0 22 -4 40 -10 40 -5 0 -10 -10 -10 -22z"/>
<path d="M1951 1604 c-25 -13 -49 -30 -53 -39 -5 -8 -17 -15 -28 -15 -10 0
-21 -6 -23 -12 -3 -7 -6 -2 -7 12 -2 21 -3 20 -11 -10 -15 -56 -15 -64 3 -68
12 -2 21 5 28 23 9 25 22 34 54 39 9 1 28 14 43 28 16 15 42 34 58 43 22 12
24 16 8 12 -12 -3 -23 -1 -25 3 -2 5 -23 -3 -47 -16z"/>
<path d="M1570 1596 c0 -8 -8 -23 -17 -35 -24 -29 -20 -151 4 -151 12 0 13 8
8 39 -5 29 -1 52 15 89 21 48 20 72 -1 72 -5 0 -9 -6 -9 -14z"/>
<path d="M1965 1495 c-5 -2 -22 -6 -36 -9 -15 -3 -29 -14 -32 -23 -2 -10 -8
-26 -12 -35 -5 -13 -2 -18 9 -18 25 0 78 29 71 40 -8 13 5 38 23 43 13 4 13 5
2 5 -8 0 -19 -1 -25 -3z"/>
<path d="M1560 1362 c-8 -9 -20 -31 -26 -49 -10 -29 -9 -35 7 -44 26 -14 39
-3 39 31 0 16 4 40 10 54 11 31 -6 35 -30 8z"/>
<path d="M3557 1313 c-13 -12 -7 -23 13 -23 13 0 18 5 14 15 -7 16 -17 19 -27
8z"/>
<path d="M1665 1200 c3 -5 8 -10 11 -10 2 0 4 5 4 10 0 6 -5 10 -11 10 -5 0
-7 -4 -4 -10z"/>
<path d="M3569 1188 c0 -13 -2 -31 -4 -40 -2 -10 1 -18 6 -18 5 0 9 18 9 40 0
42 -9 57 -11 18z"/>
<path d="M4240 1085 c0 -11 11 -15 40 -15 29 0 40 4 40 15 0 11 -11 15 -40 15
-29 0 -40 -4 -40 -15z"/>
<path d="M1240 1065 c-12 -31 -5 -84 9 -69 13 15 20 69 11 84 -7 11 -11 8 -20
-15z"/>
<path d="M1120 945 c0 -37 -9 -50 -38 -60 -13 -4 -21 -9 -18 -12 2 -3 -4 -14
-15 -26 -20 -22 -25 -37 -10 -37 5 0 12 -42 16 -92 7 -87 23 -161 24 -115 1
10 8 29 17 42 12 18 16 48 15 118 l-1 93 32 15 c35 15 44 35 33 76 -4 19 -9
22 -19 14 -9 -7 -16 -7 -24 1 -9 9 -12 5 -12 -17z"/>
<path d="M1250 933 c0 -28 -4 -43 -13 -43 -7 0 -21 -14 -30 -30 -30 -50 1 -98
31 -49 11 16 16 18 28 9 11 -10 17 -10 28 -1 10 8 16 9 21 1 3 -5 1 -10 -6
-10 -10 0 -10 -3 -2 -11 30 -30 71 97 48 149 -11 26 -23 28 -31 7 -7 -18 -30
-20 -37 -2 -4 8 -6 8 -6 -2 -1 -11 -5 -10 -16 5 -13 18 -14 16 -15 -23z"/>
<path d="M2817 938 c-15 -11 -32 -28 -38 -39 -8 -17 -6 -19 18 -19 22 0 31 7
41 30 19 42 12 52 -21 28z"/>
<path d="M905 768 c-3 -13 -1 -37 5 -53 10 -27 13 -28 21 -12 13 23 8 79 -8
84 -7 3 -15 -6 -18 -19z"/>
<path d="M1296 725 c-17 -27 -22 -85 -6 -85 14 0 40 55 40 85 0 32 -13 32 -34
0z"/>
<path d="M720 670 c-15 -15 -20 -33 -20 -69 0 -49 12 -72 26 -50 13 22 32 129
23 135 -4 2 -17 -4 -29 -16z"/>
<path d="M356 645 c4 -8 10 -12 15 -9 11 6 2 24 -11 24 -5 0 -7 -7 -4 -15z"/>
<path d="M966 614 c-3 -9 -6 -28 -6 -42 0 -15 -7 -45 -15 -67 -18 -50 -19 -76
-3 -73 25 6 48 67 48 127 0 59 -12 86 -24 55z"/>
<path d="M1150 574 c-8 -16 -27 -41 -42 -56 -35 -34 -38 -71 -6 -66 12 2 28
13 34 25 6 13 18 31 27 40 11 13 14 27 9 52 l-7 33 -15 -28z"/>
<path d="M3490 580 c0 -5 5 -10 10 -10 6 0 10 5 10 10 0 6 -4 10 -10 10 -5 0
-10 -4 -10 -10z"/>
<path d="M360 520 c0 -16 4 -30 9 -30 13 0 21 27 15 45 -10 25 -24 17 -24 -15z"/>
<path d="M484 493 c-25 -55 -38 -139 -24 -148 6 -3 10 -16 10 -29 0 -40 12
-37 41 10 35 55 36 64 4 64 -22 0 -25 4 -25 38 1 20 7 48 15 62 16 28 19 50 7
50 -4 0 -17 -21 -28 -47z"/>
<path d="M820 453 c-71 -21 -120 -65 -120 -108 0 -22 13 -18 39 9 12 13 37 31
55 41 51 28 70 71 26 58z"/>
<path d="M387 430 c-4 -16 0 -20 19 -20 17 0 24 6 24 20 0 13 -7 20 -19 20
-10 0 -21 -9 -24 -20z"/>
<path d="M0 325 l0 -96 28 3 c33 4 41 35 18 70 -15 22 -14 26 10 52 22 23 24
30 13 41 -8 8 -26 17 -41 20 l-28 7 0 -97z"/>
<path d="M311 404 c0 -11 3 -14 6 -6 3 7 2 16 -1 19 -3 4 -6 -2 -5 -13z"/>
<path d="M872 367 c-6 -7 -7 -18 -3 -26 7 -10 10 -8 16 8 8 27 2 36 -13 18z"/>
<path d="M179 344 c-7 -9 -15 -46 -17 -83 -4 -59 -2 -64 11 -47 22 29 38 11
32 -36 -3 -23 -10 -47 -16 -55 -12 -14 -8 -16 34 -13 36 2 35 -20 -3 -48 -26
-20 -28 -25 -18 -42 11 -17 24 -20 86 -20 50 0 74 4 76 13 2 6 9 31 16 55 12
39 12 44 -7 65 -16 17 -21 37 -22 92 -1 39 -6 72 -12 73 -5 2 -9 11 -9 20 0
15 -2 15 -10 2 -5 -8 -10 -11 -10 -7 0 5 -10 1 -22 -7 -33 -24 -46 -20 -62 19
-17 39 -27 43 -47 19z m141 -88 c0 -20 -27 -40 -32 -24 -5 13 11 37 25 38 4 0
7 -6 7 -14z"/>
<path d="M738 202 c-26 -15 -58 -86 -58 -129 0 -10 -7 -30 -14 -46 l-15 -27
44 0 c24 0 47 5 50 10 3 6 11 10 16 10 6 0 7 -4 4 -10 -4 -6 5 -10 19 -10 24
0 26 3 26 46 0 40 2 45 18 39 41 -17 52 -17 52 0 0 11 -5 15 -15 11 -11 -4
-15 2 -15 21 l0 26 -25 -27 c-13 -14 -31 -26 -40 -26 -9 0 -27 -7 -40 -16 -22
-14 -25 -15 -25 -1 0 8 -5 17 -11 19 -7 2 3 27 26 61 21 32 36 59 34 61 -2 3
-16 -3 -31 -12z"/>
<path d="M850 159 c0 -5 5 -7 10 -4 6 3 10 8 10 11 0 2 -4 4 -10 4 -5 0 -10
-5 -10 -11z"/>
<path d="M548 112 c-20 -4 -31 -29 -17 -38 12 -7 43 20 38 33 -2 5 -11 7 -21
5z"/>
<path d="M100 73 c-29 -24 -33 -25 -42 -10 -5 9 -20 17 -33 17 -22 0 -25 -4
-25 -40 0 -38 2 -40 30 -40 33 0 82 31 105 66 22 34 1 38 -35 7z"/>
<path d="M490 10 c-12 -8 -11 -10 8 -10 12 0 22 5 22 10 0 13 -11 13 -30 0z"/>
<path d="M610 10 c0 -5 5 -10 10 -10 6 0 10 5 10 10 0 6 -4 10 -10 10 -5 0
-10 -4 -10 -10z"/>
</g>
</svg>
